<svg width="52" height="98" viewBox="0 0 52 98" fill="none" xmlns="http://www.w3.org/2000/svg">
<path d="M23.8267 97.0864L1.59873 84.2532C0.784213 83.7828 0.886268 82.9614 1.82701 82.4185L25.3863 68.7812C26.327 68.2383 27.7497 68.1792 28.5642 68.6496L50.7921 81.4827C51.6066 81.9531 51.5046 82.7745 50.5638 83.3174L27.0046 96.9548C26.0642 97.4976 24.6412 97.5567 23.8267 97.0864Z" fill="#7DC3EA"/>
<path d="M25.2087 92.8691C24.5741 92.8691 23.9633 92.736 23.496 92.4662L1.26804 79.6331C0.70904 79.31 0.388672 78.8116 0.388672 78.2657C0.388672 77.6499 0.792293 77.0633 1.49593 76.657L25.0548 63.0204C26.1951 62.3617 27.8801 62.3037 28.8922 62.888L51.1202 75.7212C51.6792 76.0439 51.9995 76.5423 51.9995 77.0886C51.9995 77.7044 51.5959 78.291 50.8919 78.6969L27.3334 92.3339C26.7199 92.6884 25.9484 92.8691 25.2087 92.8691ZM24.1547 91.3252C24.7652 91.6778 25.9422 91.616 26.6739 91.1932L50.2324 77.5563C50.5619 77.366 50.6817 77.1722 50.6817 77.0886C50.6817 77.0391 50.6134 76.9505 50.4614 76.8622L28.2335 64.0291C27.6231 63.6765 26.446 63.7382 25.7143 64.161L2.15584 77.7976C1.82627 77.9879 1.70657 78.1817 1.70657 78.2657C1.70657 78.3148 1.77485 78.4038 1.92717 78.492L24.1547 91.3252Z" fill="white"/>
<path d="M25.4304 29.5351C25.4304 29.5351 13.2268 30.6976 5.87695 31.262L25.3717 86.7832L51.1581 71.9104C51.1624 71.9081 51.1666 71.9054 51.1708 71.9031L51.2168 71.8767L51.2161 71.8744C51.5387 71.671 51.7428 71.2275 51.7428 70.6014V16.3348C51.7428 15.762 51.571 15.1447 51.2951 14.6025L25.4304 29.5351Z" fill="url(#paint0_radial_592_15784)"/>
<path d="M50.147 13.2837L27.4697 0.19076C27.0757 -0.0367526 26.7154 -0.0532508 26.4369 0.101366L0.546875 15.0374L1.76655 19.552L8.25814 38.0396L9.48011 38.7452L51.2968 14.6019C51.0064 14.0318 50.5989 13.545 50.147 13.2837Z" fill="url(#paint1_linear_592_15784)"/>
<path d="M24.2744 86.7332L1.5968 73.6403C0.714761 73.1312 0 71.7649 0 70.5894V16.3217C0 15.1457 0.714761 14.6051 1.5968 15.1147L24.2744 28.2076C25.1565 28.7167 25.8712 30.0825 25.8712 31.2585V85.5258C25.8712 86.7018 25.1565 87.2423 24.2744 86.7332Z" fill="#5793CE"/>
<path d="M24.7615 27.9341L2.08424 14.8412C1.57358 14.5466 1.12048 14.6053 0.828125 14.9337C1.05641 14.8976 1.31883 14.9529 1.59813 15.114L24.2757 28.2069C25.1578 28.7161 25.8726 30.0823 25.8726 31.2578V85.5252C25.8726 86.0205 25.7444 86.4011 25.5319 86.6401C26.0245 86.5622 26.3587 86.0558 26.3587 85.2524V30.985C26.3583 29.8091 25.6435 28.4433 24.7615 27.9341Z" fill="white"/>
<path d="M22.849 83.4663L3.02468 72.0208C2.2539 71.5758 1.62891 70.3814 1.62891 69.3536V18.9544C1.62891 17.9265 2.2539 17.4538 3.02468 17.8989L22.849 29.3444C23.6201 29.7894 24.2451 30.9838 24.2451 32.0116V82.4109C24.2447 83.4387 23.6198 83.9113 22.849 83.4663Z" fill="url(#paint2_linear_592_15784)"/>
<path d="M22.849 83.4663L3.02468 72.0208C2.2539 71.5758 1.62891 70.3814 1.62891 69.3536V18.9544C1.62891 17.9265 2.2539 17.4538 3.02468 17.8989L22.849 29.3444C23.6201 29.7894 24.2451 30.9838 24.2451 32.0116V82.4109C24.2447 83.4387 23.6198 83.9113 22.849 83.4663Z" fill="url(#paint3_linear_592_15784)"/>
<path d="M22.849 83.4663L3.02468 72.0208C2.2539 71.5758 1.62891 70.3814 1.62891 69.3536V18.9544C1.62891 17.9265 2.2539 17.4538 3.02468 17.8989L22.849 29.3444C23.6201 29.7894 24.2451 30.9838 24.2451 32.0116V82.4109C24.2447 83.4387 23.6198 83.9113 22.849 83.4663Z" fill="#173D7A"/>
<path d="M23.497 83.0848L3.67268 71.6393C2.9019 71.1943 2.27691 69.9999 2.27691 68.9721V18.5728C2.27691 18.2222 2.35096 17.9383 2.47719 17.7315C1.97881 17.7276 1.62891 18.1853 1.62891 18.9538V69.3531C1.62891 70.3809 2.2539 71.5753 3.02468 72.0203L22.849 83.4658C23.3569 83.7593 23.8005 83.6519 24.0445 83.2521C23.8768 83.2505 23.6915 83.1968 23.497 83.0848Z" fill="#396CAA"/>
<path d="M22.8468 60.3273L15.4786 56.0732L3.72656 62.8583L24.243 74.7036V62.9949C24.2426 61.9667 23.6176 60.7724 22.8468 60.3273Z" fill="#173D7A"/>
<path d="M22.8468 50.0002L15.4786 45.7461L3.72656 52.5312L24.243 64.376V52.6674C24.2426 51.6396 23.6176 50.4452 22.8468 50.0002Z" fill="#173D7A"/>
<path d="M22.8468 39.673L15.4786 35.4189L3.72656 42.204L24.243 54.0493V42.3406C24.2426 41.312 23.6176 40.1181 22.8468 39.673Z" fill="#173D7A"/>
<path d="M22.8468 29.3439L15.4786 25.0898L3.72656 31.8749L24.243 43.7202V32.0115C24.2426 30.9833 23.6176 29.7893 22.8468 29.3439Z" fill="#173D7A"/>
<path d="M22.8472 29.3449L6.5346 19.9268L3.72656 21.5477L24.243 33.393V32.0122C24.243 30.9843 23.618 29.7904 22.8472 29.3449Z" fill="#173D7A"/>
<path d="M24.2426 33.3931L3.72656 21.5479V28.0755L24.2426 39.9208V33.3931Z" fill="#5793CE"/>
<path d="M24.2426 43.7208L3.72656 31.876V38.4033L24.2426 50.2485V43.7208Z" fill="#5793CE"/>
<path d="M24.2426 54.0484L3.72656 42.2031V48.7308L24.2426 60.5756V54.0484Z" fill="#5793CE"/>
<path d="M24.2426 64.3765L3.72656 52.5312V59.0589L24.2426 70.9038V64.3765Z" fill="#5793CE"/>
<path d="M24.2426 74.7036L3.72656 62.8584V69.3861L24.2426 81.2313V74.7036Z" fill="#5793CE"/>
<path d="M22.4342 37.5937L6.98137 28.672C6.54514 28.4199 6.19141 27.7443 6.19141 27.1627V25.4147C6.19141 24.8331 6.54514 24.5656 6.98137 24.8173L22.4342 33.7391C22.8704 33.9911 23.2242 34.6667 23.2242 35.2484V36.9964C23.2242 37.578 22.8708 37.8454 22.4342 37.5937Z" fill="#173D7A"/>
<path opacity="0.3" d="M7.76212 28.3367C7.3259 28.0846 6.97216 27.409 6.97216 26.8274V25.0794C6.97216 24.9861 6.98405 24.9044 7.00132 24.8281L6.98137 24.8166C6.54514 24.5645 6.19141 24.8319 6.19141 25.4139V27.1619C6.19141 27.7435 6.54514 28.4196 6.98137 28.6712L22.4346 37.593C22.801 37.8047 23.1064 37.6463 23.1954 37.2469L7.76212 28.3367Z" fill="#06033E"/>
<path d="M17.5848 32.8027L8.28558 27.4337C8.13212 27.3451 8.00781 27.1072 8.00781 26.9027C8.00781 26.6982 8.13212 26.6039 8.28558 26.6925L17.5848 32.0611C17.7383 32.1497 17.8626 32.3876 17.8626 32.5921C17.863 32.797 17.7383 32.891 17.5848 32.8027Z" fill="white"/>
<path d="M22.4342 47.8574L6.98137 38.9357C6.54514 38.6836 6.19141 38.008 6.19141 37.4263V35.6784C6.19141 35.0967 6.54514 34.8293 6.98137 35.081L22.4342 44.0027C22.8704 44.2548 23.2242 44.9304 23.2242 45.5121V47.26C23.2242 47.8417 22.8708 48.1091 22.4342 47.8574Z" fill="#173D7A"/>
<path opacity="0.3" d="M7.76212 38.6C7.3259 38.3479 6.97216 37.6723 6.97216 37.0906V35.3427C6.97216 35.2494 6.98405 35.1677 7.00132 35.0918L6.98137 35.0802C6.54514 34.8282 6.19141 35.0956 6.19141 35.6776V37.4256C6.19141 38.0072 6.54514 38.6832 6.98137 38.9349L22.4346 47.8566C22.801 48.068 23.1064 47.91 23.1954 47.5106L7.76212 38.6Z" fill="#06033E"/>
<path d="M17.5848 43.066L8.28558 37.6974C8.13212 37.6088 8.00781 37.3709 8.00781 37.1664C8.00781 36.9619 8.13212 36.8675 8.28558 36.9562L17.5848 42.3251C17.7383 42.4138 17.8626 42.6516 17.8626 42.8561C17.863 43.0603 17.7383 43.1542 17.5848 43.066Z" fill="white"/>
<path d="M22.4342 58.2187L6.98137 49.297C6.54514 49.0449 6.19141 48.3693 6.19141 47.7877V46.0397C6.19141 45.4581 6.54514 45.1906 6.98137 45.4423L22.4342 54.364C22.8704 54.6161 23.2242 55.2918 23.2242 55.8734V57.6214C23.2242 58.2034 22.8708 58.4708 22.4342 58.2187Z" fill="#173D7A"/>
<path opacity="0.3" d="M7.76212 48.9613C7.3259 48.7092 6.97216 48.0336 6.97216 47.452V45.704C6.97216 45.6108 6.98405 45.529 7.00132 45.4531L6.98137 45.4416C6.54514 45.1895 6.19141 45.4569 6.19141 46.0389V47.7869C6.19141 48.3685 6.54514 49.0446 6.98137 49.2962L22.4346 58.218C22.801 58.4294 23.1064 58.2713 23.1954 57.8719L7.76212 48.9613Z" fill="#06033E"/>
<path d="M17.5848 53.4273L8.28558 48.0587C8.13212 47.9701 8.00781 47.7322 8.00781 47.5277C8.00781 47.3232 8.13212 47.2289 8.28558 47.3175L17.5848 52.6865C17.7383 52.7751 17.8626 53.013 17.8626 53.2175C17.863 53.422 17.7383 53.516 17.5848 53.4273Z" fill="#D4ECFF"/>
<path d="M22.4342 68.6728L6.98137 59.7511C6.54514 59.499 6.19141 58.8234 6.19141 58.2418V56.4938C6.19141 55.9122 6.54514 55.6447 6.98137 55.8964L22.4342 64.8182C22.8704 65.0702 23.2242 65.7459 23.2242 66.3275V68.0755C23.2242 68.6575 22.8708 68.9249 22.4342 68.6728Z" fill="#173D7A"/>
<path opacity="0.3" d="M7.76212 59.4158C7.3259 59.1637 6.97216 58.4881 6.97216 57.9065V56.1585C6.97216 56.0653 6.98405 55.9835 7.00132 55.9072L6.98137 55.8957C6.54514 55.6436 6.19141 55.911 6.19141 56.493V58.241C6.19141 58.8226 6.54514 59.4987 6.98137 59.7503L22.4346 68.6721C22.801 68.8839 23.1064 68.7254 23.1954 68.326L7.76212 59.4158Z" fill="#06033E"/>
<path d="M17.5848 63.8808L8.28558 58.5118C8.13212 58.4232 8.00781 58.1853 8.00781 57.9809C8.00781 57.7764 8.13212 57.682 8.28558 57.7706L17.5848 63.1392C17.7383 63.2278 17.8626 63.4657 17.8626 63.6702C17.863 63.8755 17.7383 63.9695 17.5848 63.8808Z" fill="#FF2C9C"/>
<path d="M22.4342 78.9199L6.98137 69.9982C6.54514 69.7461 6.19141 69.0705 6.19141 68.4888V66.7409C6.19141 66.1592 6.54514 65.8918 6.98137 66.1435L22.4342 75.0652C22.8704 75.3173 23.2242 75.9929 23.2242 76.5746V78.3225C23.2242 78.9045 22.8708 79.172 22.4342 78.9199Z" fill="#173D7A"/>
<path opacity="0.3" d="M7.76212 69.6635C7.3259 69.4114 6.97216 68.7358 6.97216 68.1541V66.4061C6.97216 66.3129 6.98405 66.2312 7.00132 66.1552L6.98137 66.1437C6.54514 65.8917 6.19141 66.1591 6.19141 66.7411V68.4891C6.19141 69.0707 6.54514 69.7467 6.98137 69.9984L22.4346 78.9201C22.801 79.1319 23.1064 78.9734 23.1954 78.574L7.76212 69.6635Z" fill="#06033E"/>
<path d="M17.5848 74.1295L8.28558 68.7609C8.13212 68.6723 8.00781 68.4344 8.00781 68.2299C8.00781 68.0254 8.13212 67.931 8.28558 68.0196L17.5848 73.3882C17.7383 73.4769 17.8626 73.7147 17.8626 73.9192C17.863 74.1241 17.7383 74.2181 17.5848 74.1295Z" fill="#D4ECFF"/>
<path opacity="0.5" d="M3.72852 21.5479L5.34412 22.4809V29.0082L3.72852 28.0755V21.5479Z" fill="#173D7A"/>
<path opacity="0.5" d="M3.72852 31.876L5.34412 32.8087V39.3359L3.72852 38.4033V31.876Z" fill="#173D7A"/>
<path opacity="0.5" d="M3.72852 42.2021L5.34412 43.1348V49.6625L3.72852 48.7298V42.2021Z" fill="#173D7A"/>
<path opacity="0.5" d="M3.72852 52.5303L5.34412 53.463V59.9906L3.72852 59.0579V52.5303Z" fill="#173D7A"/>
<path opacity="0.5" d="M3.72852 62.8584L5.34412 63.7911V70.3187L3.72852 69.3861V62.8584Z" fill="#173D7A"/>
<path d="M19.4182 33.4473C19.4182 33.6561 19.2716 33.7405 19.0909 33.6361C18.9102 33.5318 18.7637 33.2781 18.7637 33.0694C18.7637 32.8607 18.9102 32.7763 19.0909 32.8807C19.2716 32.9854 19.4182 33.239 19.4182 33.4473Z" fill="#D4ECFF"/>
<path d="M20.8049 34.2481C20.8049 34.4568 20.6584 34.5413 20.4777 34.4369C20.2969 34.3325 20.1504 34.0789 20.1504 33.8702C20.1504 33.6615 20.2969 33.5771 20.4777 33.6815C20.6584 33.7862 20.8049 34.0398 20.8049 34.2481Z" fill="#FF2C9C"/>
<path d="M22.1916 35.0489C22.1916 35.2576 22.0451 35.342 21.8644 35.2377C21.6837 35.1333 21.5371 34.8797 21.5371 34.671C21.5371 34.4623 21.6837 34.3779 21.8644 34.4822C22.0455 34.5866 22.1916 34.8406 22.1916 35.0489Z" fill="#D4ECFF"/>
<path d="M19.4182 43.7696C19.4182 43.9783 19.2716 44.0627 19.0909 43.9584C18.9102 43.854 18.7637 43.6004 18.7637 43.3917C18.7637 43.183 18.9102 43.0986 19.0909 43.2029C19.2716 43.3073 19.4182 43.5609 19.4182 43.7696Z" fill="#FF2C9C"/>
<path d="M20.8049 44.5704C20.8049 44.7791 20.6584 44.8635 20.4777 44.7592C20.2969 44.6548 20.1504 44.4012 20.1504 44.1925C20.1504 43.9838 20.2969 43.8994 20.4777 44.0037C20.6584 44.1081 20.8049 44.3617 20.8049 44.5704Z" fill="#D4ECFF"/>
<path d="M22.1916 45.3712C22.1916 45.5799 22.0451 45.6643 21.8644 45.5599C21.6837 45.4556 21.5371 45.202 21.5371 44.9933C21.5371 44.7846 21.6837 44.7001 21.8644 44.8045C22.0455 44.9089 22.1916 45.1625 22.1916 45.3712Z" fill="white"/>
<path d="M19.4182 54.17C19.4182 54.3787 19.2716 54.4631 19.0909 54.3588C18.9102 54.2544 18.7637 54.0008 18.7637 53.7921C18.7637 53.5834 18.9102 53.499 19.0909 53.6033C19.2716 53.7077 19.4182 53.9613 19.4182 54.17Z" fill="white"/>
<path d="M20.8049 54.9708C20.8049 55.1795 20.6584 55.2639 20.4777 55.1596C20.2969 55.0552 20.1504 54.8016 20.1504 54.5929C20.1504 54.3842 20.2969 54.2998 20.4777 54.4041C20.6584 54.5085 20.8049 54.7621 20.8049 54.9708Z" fill="#FF2C9C"/>
<path d="M22.1916 55.7716C22.1916 55.9803 22.0451 56.0647 21.8644 55.9603C21.6837 55.856 21.5371 55.6024 21.5371 55.3937C21.5371 55.1849 21.6837 55.1005 21.8644 55.2049C22.0455 55.3093 22.1916 55.5629 22.1916 55.7716Z" fill="white"/>
<path d="M19.4182 64.419C19.4182 64.6277 19.2716 64.7121 19.0909 64.6078C18.9102 64.5034 18.7637 64.2498 18.7637 64.0411C18.7637 63.8324 18.9102 63.748 19.0909 63.8524C19.2716 63.9567 19.4182 64.2103 19.4182 64.419Z" fill="white"/>
<path d="M20.8049 65.2198C20.8049 65.4285 20.6584 65.5129 20.4777 65.4086C20.2969 65.3042 20.1504 65.0506 20.1504 64.8419C20.1504 64.6332 20.2969 64.5488 20.4777 64.6531C20.6584 64.7575 20.8049 65.0111 20.8049 65.2198Z" fill="#D4ECFF"/>
<path d="M22.1916 66.0206C22.1916 66.2293 22.0451 66.3137 21.8644 66.2093C21.6837 66.105 21.5371 65.8514 21.5371 65.6427C21.5371 65.434 21.6837 65.3496 21.8644 65.4539C22.0455 65.5583 22.1916 65.8119 22.1916 66.0206Z" fill="#D4ECFF"/>
<path d="M19.4182 74.8077C19.4182 75.0164 19.2716 75.1008 19.0909 74.9965C18.9102 74.8921 18.7637 74.6385 18.7637 74.4298C18.7637 74.2211 18.9102 74.1367 19.0909 74.241C19.2716 74.3454 19.4182 74.5994 19.4182 74.8077Z" fill="white"/>
<path d="M20.8049 75.6085C20.8049 75.8172 20.6584 75.9016 20.4777 75.7972C20.2969 75.6929 20.1504 75.4393 20.1504 75.2306C20.1504 75.0219 20.2969 74.9375 20.4777 75.0418C20.6584 75.1462 20.8049 75.3998 20.8049 75.6085Z" fill="#FF2C9C"/>
<path d="M22.1916 76.4093C22.1916 76.618 22.0451 76.7024 21.8644 76.598C21.6837 76.4937 21.5371 76.2401 21.5371 76.0314C21.5371 75.8226 21.6837 75.7382 21.8644 75.8426C22.0455 75.9469 22.1916 76.2005 22.1916 76.4093Z" fill="#D4ECFF"/>
<path d="M29.2871 79.398V33.1883L29.3826 33.1334L48.6948 21.9834V68.193L48.5992 68.2479L29.2871 79.398ZM29.6696 33.4093V78.735L48.3126 67.9717V22.646L29.6696 33.4093Z" fill="#173D7A"/>
<path d="M43.6773 42.775L35.018 47.7745C34.4364 48.1102 33.9648 47.7538 33.9648 46.9784V42.1772C33.9648 41.4018 34.4364 40.5006 35.018 40.1649L43.6773 35.1654C44.2589 34.8297 44.7305 35.1861 44.7305 35.9615V40.7627C44.7305 41.5381 44.2589 42.4389 43.6773 42.775Z" fill="#173D7A"/>
<path d="M43.8874 35.0721C43.9369 35.2064 43.9657 35.3671 43.9657 35.5536V40.3547C43.9657 41.1301 43.4942 42.0313 42.9125 42.3671L34.2532 47.3666C34.1811 47.408 34.1109 47.4387 34.043 47.4594C34.1991 47.8834 34.5763 48.0292 35.0182 47.774L43.6775 42.7745C44.2592 42.4384 44.7307 41.5376 44.7307 40.7622V35.961C44.7307 35.2815 44.3685 34.9244 43.8874 35.0721Z" fill="#5793CE"/>
<path d="M42.0943 39.8834C42.2543 39.7909 42.384 39.8657 42.384 40.0507V41.1445C42.384 41.3294 42.2543 41.5542 42.0943 41.6467C41.9344 41.7392 41.8047 41.6644 41.8047 41.4794V40.3856C41.8043 40.2007 41.9344 39.9758 42.0943 39.8834Z" fill="white"/>
<path d="M40.8522 40.7379C41.0122 40.6454 41.1418 40.7202 41.1418 40.9052V41.862C41.1418 42.0469 41.0122 42.2714 40.8522 42.3638C40.6922 42.4563 40.5625 42.3815 40.5625 42.1966V41.2397C40.5625 41.0552 40.6922 40.8303 40.8522 40.7379Z" fill="#D4ECFF"/>
<path d="M39.61 40.3873C39.77 40.2948 39.8996 40.3696 39.8996 40.5546V42.5792C39.8996 42.7641 39.77 42.9889 39.61 43.0814C39.45 43.1738 39.3203 43.099 39.3203 42.9141V40.8895C39.3203 40.7046 39.45 40.4798 39.61 40.3873Z" fill="#FF2C9C"/>
<path d="M38.3697 39.9371C38.5297 39.8446 38.6594 39.9194 38.6594 40.1044V43.2957C38.6594 43.4806 38.5297 43.7054 38.3697 43.7979C38.2098 43.8904 38.0801 43.8156 38.0801 43.6306V40.4393C38.0797 40.2544 38.2094 40.0296 38.3697 39.9371Z" fill="#D4ECFF"/>
<path d="M37.1256 40.9898C37.2856 40.8974 37.4153 40.9722 37.4153 41.1571V44.0139C37.4153 44.1988 37.2856 44.4236 37.1256 44.5161C36.9656 44.6085 36.8359 44.5337 36.8359 44.3488V41.492C36.8356 41.3071 36.9652 41.0823 37.1256 40.9898Z" fill="#D4ECFF"/>
<path d="M35.8838 43.0123C36.0438 42.9198 36.1735 42.9946 36.1735 43.1796V44.7311C36.1735 44.916 36.0438 45.1409 35.8838 45.2333C35.7238 45.3258 35.5938 45.251 35.5938 45.066V43.5145C35.5941 43.3292 35.7238 43.1048 35.8838 43.0123Z" fill="white"/>
<path d="M41.8105 39.3316C41.8105 39.5134 41.9383 39.5871 42.0956 39.4962C42.2529 39.4052 42.3807 39.1842 42.3807 39.0024C42.3807 38.8205 42.2529 38.7469 42.0956 38.8378C41.9383 38.9287 41.8105 39.1501 41.8105 39.3316Z" fill="#FF2C9C"/>
<path d="M42.2905 38.2538C42.4019 38.0609 42.4018 37.8525 42.2905 37.7882C42.1791 37.7238 41.9985 37.8281 41.8872 38.0209C41.7758 38.2138 41.7758 38.4222 41.8872 38.4866C41.9986 38.5509 42.1792 38.4467 42.2905 38.2538Z" fill="white"/>
<defs>
<radialGradient id="paint0_radial_592_15784" cx="0" cy="0" r="1" gradientUnits="userSpaceOnUse" gradientTransform="translate(16.629 42.0669) scale(46.4793 46.4793)">
<stop stop-color="#396CAA"/>
<stop offset="1" stop-color="#274F89"/>
</radialGradient>
<linearGradient id="paint1_linear_592_15784" x1="2.01028" y1="9.09387" x2="45.3501" y2="35.5" gradientUnits="userSpaceOnUse">
<stop stop-color="#D4ECFF"/>
<stop offset="0.2385" stop-color="#D0EAFE"/>
<stop offset="0.4599" stop-color="#C5E2F9"/>
<stop offset="0.6745" stop-color="#B2D6F2"/>
<stop offset="0.8837" stop-color="#98C4E7"/>
<stop offset="1" stop-color="#86B8E0"/>
</linearGradient>
<linearGradient id="paint2_linear_592_15784" x1="0.754737" y1="47.3299" x2="21.3781" y2="44.1382" gradientUnits="userSpaceOnUse">
<stop stop-color="#3919BB"/>
<stop offset="1" stop-color="#6507FA"/>
</linearGradient>
<linearGradient id="paint3_linear_592_15784" x1="0.754737" y1="47.3299" x2="21.3781" y2="44.1382" gradientUnits="userSpaceOnUse">
<stop stop-color="#3919BB"/>
<stop offset="1" stop-color="#6507FA"/>
</linearGradient>
</defs>
</svg>
