<svg width="48" height="38" viewBox="0 0 48 38" fill="none" xmlns="http://www.w3.org/2000/svg">
<path d="M4.30933 37.3333C3.08089 37.3333 2.056 36.9227 1.23467 36.1013C0.413334 35.28 0.00177778 34.2542 0 33.024V4.30933C0 3.08089 0.411556 2.056 1.23467 1.23467C2.05778 0.413333 3.08178 0.00177778 4.30667 0H43.6933C44.92 0 45.944 0.411555 46.7653 1.23467C47.5867 2.05778 47.9982 3.08267 48 4.30933V33.0267C48 34.2533 47.5884 35.2782 46.7653 36.1013C45.9422 36.9244 44.9182 37.3351 43.6933 37.3333H4.30933ZM45.3333 5.02667L25.1947 18.2107C25.0062 18.3084 24.816 18.3911 24.624 18.4587C24.4302 18.5244 24.2222 18.5573 24 18.5573C23.7778 18.5573 23.5698 18.5244 23.376 18.4587C23.1822 18.3929 22.992 18.3102 22.8053 18.2107L2.66667 5.024V33.024C2.66667 33.504 2.82044 33.8978 3.128 34.2053C3.43556 34.5129 3.82933 34.6667 4.30933 34.6667H43.6933C44.1716 34.6667 44.5644 34.5129 44.872 34.2053C45.1796 33.8978 45.3333 33.504 45.3333 33.024V5.02667ZM24 16L44.512 2.66667H3.488L24 16ZM2.66667 5.58933V3.42667V3.51733V2.66667V3.52V3.38133V5.58933Z" fill="black"/>
</svg>
