<svg width="79" height="85" viewBox="0 0 79 85" fill="none" xmlns="http://www.w3.org/2000/svg">
<path d="M54.6519 68.7448H51.56C50.4978 68.7448 49.6367 67.8825 49.6367 66.8186V66.5922C49.6367 65.5284 50.4978 64.666 51.56 64.666H54.6519C55.7141 64.666 56.5752 65.5283 56.5752 66.5922V66.8186C56.5752 67.8824 55.7141 68.7448 54.6519 68.7448Z" fill="#3B2D3C"/>
<path d="M75.9606 0.449219H67.207V84.4452H75.9606V0.449219Z" fill="#FF9B64"/>
<path d="M75.9606 45.2295H67.207V84.4464H75.9606V45.2295Z" fill="#C12634"/>
<path d="M77.5352 0.449219H69.3945V84.445H77.5352V0.449219Z" fill="#F74A28"/>
<path opacity="0.33" d="M72.1387 3.12988L72.6608 6.37208" stroke="#6B443E" stroke-width="4.3413" stroke-miterlimit="10" stroke-linecap="round"/>
<path opacity="0.33" d="M72.0335 3.12988L71.668 7.41794" stroke="#6B443E" stroke-width="4.3413" stroke-miterlimit="10" stroke-linecap="round"/>
<path opacity="0.33" d="M69.3672 2.1709H77.5078" stroke="#6B443E" stroke-width="4.3413" stroke-miterlimit="10"/>
<path opacity="0.33" d="M67.2246 2.3601L69.3692 2.1709" stroke="#6B443E" stroke-width="4.3413" stroke-miterlimit="10"/>
<path opacity="0.33" d="M67.2246 3.05957L69.3692 3.22984" stroke="#6B443E" stroke-width="4.3413" stroke-miterlimit="10"/>
<path opacity="0.33" d="M77.5078 2.81348L69.3672 3.22963" stroke="#6B443E" stroke-width="4.3413" stroke-miterlimit="10"/>
<path d="M69.3672 1.95312H77.5078" stroke="#E5C6AC" stroke-width="2.1707" stroke-miterlimit="10" stroke-linecap="round"/>
<path d="M67.2246 2.14222L69.3692 1.95312" stroke="#FFE2CF" stroke-width="2.1707" stroke-miterlimit="10" stroke-linecap="round"/>
<path d="M67.2246 2.8418L69.3692 3.01206" stroke="#FFE2CF" stroke-width="2.1707" stroke-miterlimit="10" stroke-linecap="round"/>
<path d="M77.5078 2.5957L69.3672 3.01185" stroke="#E5C6AC" stroke-width="2.1707" stroke-miterlimit="10" stroke-linecap="round"/>
<path d="M66.311 44.3262H57.5566V84.4465H66.311V44.3262Z" fill="#FFE156"/>
<path d="M66.31 66.4629H57.5566V84.4451H66.31V66.4629Z" fill="#915E34"/>
<path d="M67.8848 44.3262H59.7441V84.4457H67.8848V44.3262Z" fill="#FAB15B"/>
<path d="M57.0032 66.8652H48.25V84.4458H57.0032V66.8652Z" fill="#818DF9"/>
<path d="M57.0032 75.6553H48.25V84.4456H57.0032V75.6553Z" fill="#4A527F"/>
<path d="M58.5786 66.8652H50.4375V84.4458H58.5786V66.8652Z" fill="#727BCC"/>
<path d="M47.1899 74.3564H38.4355V84.4453H47.1899V74.3564Z" fill="#4A527F"/>
<path d="M48.765 74.3564H40.625V84.4453H48.765V74.3564Z" fill="#727BCC"/>
<path d="M37.4252 70.9512H28.6719V84.4449H37.4252V70.9512Z" fill="#4A527F"/>
<path d="M39 70.9512H30.8594V84.4449H39V70.9512Z" fill="#727BCC"/>
<path d="M27.8783 55.0391H19.125V84.4447H27.8783V55.0391Z" fill="#B3F75C"/>
<path d="M27.8783 69.4082H19.125V84.4452H27.8783V69.4082Z" fill="#659237"/>
<path d="M29.4121 55.0391H21.2715V84.4447H29.4121V55.0391Z" fill="#78C850"/>
<path d="M18.2943 68.1084H9.54102V84.4449H18.2943V68.1084Z" fill="#75EDFF"/>
<path d="M18.2943 79.0605H9.54102V84.4442H18.2943V79.0605Z" fill="#3A88AA"/>
<path d="M19.8692 68.1084H11.7285V84.4449H19.8692V68.1084Z" fill="#50CEFF"/>
<path d="M8.75332 77.7617H0V84.4448H8.75332V77.7617Z" fill="#818DF9"/>
<path d="M10.3281 77.7617H2.1875V84.4448H10.3281V77.7617Z" fill="#727BCC"/>
<path d="M55.5499 35.4577C55.5499 35.5082 55.509 35.5492 55.4586 35.5492C55.4081 35.5492 55.3672 35.5082 55.3672 35.4577C55.3672 35.4072 55.4081 35.3662 55.4586 35.3662C55.509 35.3662 55.5499 35.4072 55.5499 35.4577Z" fill="#1F3142"/>
<path d="M54.9015 34.9978C54.9015 35.0483 54.8606 35.0893 54.8101 35.0893C54.7597 35.0893 54.7188 35.0483 54.7188 34.9978C54.7188 34.9472 54.7597 34.9062 54.8101 34.9062C54.8606 34.9062 54.9015 34.9472 54.9015 34.9978Z" fill="#1F3142"/>
<path opacity="0.43" d="M21.2715 56.5664H29.412" stroke="#659237" stroke-width="4.3413" stroke-miterlimit="10"/>
<path opacity="0.64" d="M19.125 56.7556L21.2697 56.5664" stroke="#659237" stroke-width="4.3413" stroke-miterlimit="10"/>
<path opacity="0.64" d="M21.2697 57.6253L19.125 57.4551" stroke="#659237" stroke-width="4.3413" stroke-miterlimit="10"/>
<path opacity="0.43" d="M29.412 57.209L21.2715 57.6252" stroke="#659237" stroke-width="4.3413" stroke-miterlimit="10"/>
<path d="M21.2715 56.3486H29.412" stroke="#F9D9C0" stroke-width="2.1707" stroke-miterlimit="10" stroke-linecap="round"/>
<path d="M19.125 56.5378L21.2697 56.3486" stroke="#FFE2CF" stroke-width="2.1707" stroke-miterlimit="10" stroke-linecap="round"/>
<path d="M21.2697 57.4075L19.125 57.2373" stroke="#FFE2CF" stroke-width="2.1707" stroke-miterlimit="10" stroke-linecap="round"/>
<path d="M29.412 56.9912L21.2715 57.4074" stroke="#F9D9C0" stroke-width="2.1707" stroke-miterlimit="10" stroke-linecap="round"/>
<path d="M58.5903 44.3262C58.4838 45.6906 58.1449 48.1095 57.5566 50.181V44.3262H58.5903Z" fill="#FAB15B"/>
</svg>
