<svg width="57" height="57" viewBox="0 0 57 57" fill="none" xmlns="http://www.w3.org/2000/svg">
<path d="M50.0134 22C52.0308 23.1625 53.6665 24.8868 54.7209 26.9628C55.7754 29.0387 56.2032 31.3766 55.9521 33.6914C55.701 36.0062 54.7819 38.198 53.3068 39.9996C51.8317 41.8011 49.8644 43.1346 47.6446 43.8375C46.8611 47.3994 44.8841 50.5868 42.0413 52.8715C39.1985 55.1562 35.6605 56.4011 32.0134 56.4H26.0134C25.4829 56.4 24.9742 56.1893 24.5992 55.8142C24.2241 55.4391 24.0134 54.9304 24.0134 54.4C24.0134 53.8696 24.2241 53.3609 24.5992 52.9858C24.9742 52.6107 25.4829 52.4 26.0134 52.4H32.0134C34.4958 52.401 36.9174 51.6322 38.9446 50.1994C40.9717 48.7666 42.5046 46.7404 43.3321 44.4H42.0134C41.4829 44.4 40.9742 44.1893 40.5991 43.8142C40.2241 43.4391 40.0134 42.9304 40.0134 42.4V22.4C40.0134 21.8696 40.2241 21.3609 40.5991 20.9858C40.9742 20.6107 41.4829 20.4 42.0134 20.4H44.0134C44.6592 20.4 45.2946 20.45 45.9196 20.55C45.4654 16.117 43.3829 12.01 40.0752 9.02387C36.7674 6.03773 32.4696 4.38472 28.0134 4.38472C23.5571 4.38472 19.2593 6.03773 15.9515 9.02387C12.6438 12.01 10.5613 16.117 10.1071 20.55C10.7376 20.4496 11.375 20.3995 12.0134 20.4H14.0134C14.5438 20.4 15.0525 20.6107 15.4276 20.9858C15.8027 21.3609 16.0134 21.8696 16.0134 22.4V42.4C16.0134 42.9304 15.8027 43.4391 15.4276 43.8142C15.0525 44.1893 14.5438 44.4 14.0134 44.4H12.0134C9.36929 44.4029 6.79827 43.5325 4.69976 41.924C2.60125 40.3155 1.09275 38.0589 0.408628 35.5048C-0.27549 32.9508 -0.0969171 30.2423 0.916601 27.8002C1.93012 25.3581 3.72183 23.3191 6.01336 22C6.01336 16.1652 8.33122 10.5695 12.457 6.44365C16.5828 2.31785 22.1786 0 28.0134 0C33.8481 0 39.4439 2.31785 43.5697 6.44365C47.6955 10.5695 50.0134 16.1652 50.0134 22ZM12.0134 24.4C9.89163 24.4 7.8568 25.2429 6.35651 26.7431C4.85622 28.2434 4.01337 30.2783 4.01337 32.4C4.01337 34.5217 4.85622 36.5566 6.35651 38.0569C7.8568 39.5571 9.89163 40.4 12.0134 40.4V24.4ZM52.0134 32.4C52.0134 30.2783 51.1705 28.2434 49.6702 26.7431C48.1699 25.2429 46.1351 24.4 44.0134 24.4V40.4C46.1351 40.4 48.1699 39.5571 49.6702 38.0569C51.1705 36.5566 52.0134 34.5217 52.0134 32.4Z" fill="#404040"/>
</svg>
