<svg width="51" height="51" viewBox="0 0 51 51" fill="none" xmlns="http://www.w3.org/2000/svg">
<path d="M46.6667 50.6667C47.7275 50.6667 48.7449 50.2452 49.4951 49.4951C50.2452 48.7449 50.6667 47.7275 50.6667 46.6667V37.3333C50.6667 36.2725 50.2452 35.2551 49.4951 34.5049C48.7449 33.7548 47.7275 33.3333 46.6667 33.3333C43.5467 33.3333 40.48 32.8533 37.5467 31.8667C36.8454 31.6453 36.0968 31.6202 35.3823 31.7942C34.6677 31.9681 34.0144 32.3344 33.4933 32.8533L29.6533 36.6933C23.0193 33.0731 17.5669 27.6207 13.9467 20.9867L17.76 17.1733C18.8533 16.1333 19.2533 14.5867 18.7733 13.0933C17.8133 10.1867 17.3333 7.12 17.3333 4C17.3333 2.93913 16.9119 1.92172 16.1618 1.17157C15.4116 0.421427 14.3942 0 13.3333 0H4C2.93913 0 1.92172 0.421427 1.17157 1.17157C0.421427 1.92172 0 2.93913 0 4C0 29.7333 20.9333 50.6667 46.6667 50.6667ZM4 2.66667H13.3333C13.687 2.66667 14.0261 2.80714 14.2761 3.05719C14.5262 3.30724 14.6667 3.64638 14.6667 4C14.6667 7.41333 15.2 10.7467 16.24 13.92C16.3733 14.2933 16.3467 14.8267 15.92 15.2533L10.6667 20.48C15.0667 29.0933 21.52 35.5467 30.16 40L35.36 34.7467C35.7333 34.3733 36.24 34.2667 36.72 34.4C39.92 35.4667 43.2533 36 46.6667 36C47.0203 36 47.3594 36.1405 47.6095 36.3905C47.8595 36.6406 48 36.9797 48 37.3333V46.6667C48 47.0203 47.8595 47.3594 47.6095 47.6095C47.3594 47.8595 47.0203 48 46.6667 48C22.4 48 2.66667 28.2667 2.66667 4C2.66667 3.64638 2.80714 3.30724 3.05719 3.05719C3.30724 2.80714 3.64638 2.66667 4 2.66667Z" fill="#404040"/>
</svg>
