<svg xmlns="http://www.w3.org/2000/svg" width="300" height="600" viewBox="0 0 300 600">
  <rect width="300" height="600" rx="30" fill="#1f2937" stroke="#374151" stroke-width="3"/>
  <rect x="15" y="50" width="270" height="500" rx="5" fill="white"/>
  <!-- Status bar -->
  <rect x="15" y="50" width="270" height="40" fill="#166534"/>
  <text x="150" y="76" font-family="system-ui" font-size="14" fill="white" text-anchor="middle" font-weight="600">ADOSISTERING</text>
  <!-- Content -->
  <rect x="30" y="110" width="240" height="80" rx="8" fill="#f0fdf4"/>
  <rect x="40" y="120" width="100" height="12" rx="3" fill="#22c55e"/>
  <rect x="40" y="145" width="180" height="8" rx="2" fill="#d4d4d4"/>
  <rect x="40" y="165" width="140" height="8" rx="2" fill="#d4d4d4"/>
  <rect x="30" y="210" width="240" height="120" rx="8" fill="#f5f5f5"/>
  <rect x="30" y="350" width="115" height="80" rx="8" fill="#dcfce7"/>
  <rect x="155" y="350" width="115" height="80" rx="8" fill="#fef3c7"/>
  <rect x="30" y="450" width="240" height="80" rx="8" fill="#f5f5f5"/>
  <!-- Home indicator -->
  <rect x="110" y="565" width="80" height="5" rx="3" fill="#6b7280"/>
  <text x="150" y="590" font-family="system-ui" font-size="10" fill="#6b7280" text-anchor="middle">Mobile App Mockup</text>
</svg>
