<svg width="32" height="49" viewBox="0 0 32 49" fill="none" xmlns="http://www.w3.org/2000/svg">
<path fill-rule="evenodd" clip-rule="evenodd" d="M4.08398 0.0326712C5.58982 -0.103077 9.21195 0.113068 11.6533 2.06294C12.7993 2.9797 15.304 5.84737 15.6641 9.97896C15.7153 10.5671 16.1035 12.2171 17.2451 14.1108C16.5303 13.7276 14.8407 12.2549 13.8027 9.42818C13.1788 7.76387 11.475 4.1714 9.64941 3.11763C10.5695 4.13031 12.0082 8.04339 12.3672 9.04244C13.4511 12.0592 13.4716 12.7124 15.9805 15.1294C16.4076 15.5408 17.3137 16.3128 18.4287 17.0571C18.8322 15.5939 19.7214 13.6097 21.4844 11.5112C23.2681 9.69403 26.4592 5.16401 24.9531 1.58443C26.1101 2.43017 28.4265 4.91331 28.4355 8.07662C28.4119 9.12942 27.5908 12.8442 24.4922 14.7749C23.0056 15.701 21.3166 15.7197 20.6748 16.4633C21.5733 14.6918 22.4377 14.2031 23.5059 13.4008C24.6833 12.5165 26.6586 10.4423 26.2852 7.97896C26.2762 8.77046 25.6319 10.7919 23.127 12.5424C21.9375 13.4086 19.7959 15.3045 18.7432 17.2622C19.2743 17.6016 19.8444 17.9283 20.4277 18.2026C19.9084 18.1471 19.2263 18.0344 18.459 17.8559C18.2947 18.2526 18.184 18.648 18.1426 19.0336C18.1273 18.7457 18.156 18.327 18.2549 17.8061C15.9373 17.2419 12.9312 16.0838 11.2627 14.0473C10.6159 13.3778 9.18318 11.2494 8.62988 8.09322C8.26861 6.03219 7.36609 1.41432 4.08398 0.0326712Z" fill="#D9D9D9"/>
<path fill-rule="evenodd" clip-rule="evenodd" d="M4.08398 0.0326712C5.58982 -0.103077 9.21195 0.113068 11.6533 2.06294C12.7993 2.9797 15.304 5.84737 15.6641 9.97896C15.7153 10.5671 16.1035 12.2171 17.2451 14.1108C16.5303 13.7276 14.8407 12.2549 13.8027 9.42818C13.1788 7.76387 11.475 4.1714 9.64941 3.11763C10.5695 4.13031 12.0082 8.04339 12.3672 9.04244C13.4511 12.0592 13.4716 12.7124 15.9805 15.1294C16.4076 15.5408 17.3137 16.3128 18.4287 17.0571C18.8322 15.5939 19.7214 13.6097 21.4844 11.5112C23.2681 9.69403 26.4592 5.16401 24.9531 1.58443C26.1101 2.43017 28.4265 4.91331 28.4355 8.07662C28.4119 9.12942 27.5908 12.8442 24.4922 14.7749C23.0056 15.701 21.3166 15.7197 20.6748 16.4633C21.5733 14.6918 22.4377 14.2031 23.5059 13.4008C24.6833 12.5165 26.6586 10.4423 26.2852 7.97896C26.2762 8.77046 25.6319 10.7919 23.127 12.5424C21.9375 13.4086 19.7959 15.3045 18.7432 17.2622C19.2743 17.6016 19.8444 17.9283 20.4277 18.2026C19.9084 18.1471 19.2263 18.0344 18.459 17.8559C18.2947 18.2526 18.184 18.648 18.1426 19.0336C18.1273 18.7457 18.156 18.327 18.2549 17.8061C15.9373 17.2419 12.9312 16.0838 11.2627 14.0473C10.6159 13.3778 9.18318 11.2494 8.62988 8.09322C8.26861 6.03219 7.36609 1.41432 4.08398 0.0326712Z" fill="url(#paint0_linear_572_15906)"/>
<ellipse cx="16" cy="32.9845" rx="16" ry="16.0153" fill="url(#paint1_linear_572_15906)"/>
<g clip-path="url(#clip0_572_15906)">
<rect x="2.41797" y="19.3906" width="27.2126" height="27.2386" rx="13.6063" fill="white"/>
<path d="M30.8547 30.5927C30.8609 30.663 30.866 30.7332 30.8705 30.8035C30.8745 30.8616 30.8779 30.9249 30.8807 30.9852C30.8807 31.0003 30.8807 31.0166 30.8807 31.0323C30.8807 31.0781 30.8846 31.124 30.8863 31.1699C30.888 31.2157 30.8863 31.2448 30.8897 31.2825C30.8931 31.3203 30.8897 31.3719 30.8897 31.4161C30.8897 31.4317 30.8897 31.448 30.8897 31.4637C30.8897 31.5061 30.8897 31.5479 30.8897 31.5897V31.6762C30.8897 31.7342 30.8897 31.7923 30.8897 31.8469C30.8897 31.9015 30.8897 31.9682 30.8841 32.0286C30.8841 32.0623 30.8841 32.0965 30.8801 32.1308C30.8801 32.154 30.8801 32.1767 30.8767 32.2005C30.8733 32.2243 30.8767 32.2585 30.8728 32.2847C30.8694 32.334 30.8666 32.3834 30.8626 32.4333C30.854 32.563 30.8429 32.6923 30.8294 32.8212C30.826 32.8568 30.822 32.8922 30.8175 32.9274C30.8175 32.9431 30.8175 32.9588 30.8124 32.9756C30.8079 33.0151 30.8034 33.0552 30.7983 33.0952C30.7893 33.1666 30.7797 33.2386 30.769 33.31C30.7628 33.3577 30.7555 33.4053 30.7482 33.4517C30.7369 33.5278 30.7239 33.6044 30.7104 33.6799C30.7002 33.738 30.6901 33.796 30.6788 33.8512C30.6788 33.8628 30.6748 33.8744 30.672 33.8866C30.6619 33.9412 30.6506 33.9958 30.6393 34.0503C30.6241 34.1223 30.6089 34.1949 30.5925 34.2669C30.579 34.325 30.5649 34.3859 30.5502 34.4446C30.5485 34.454 30.5462 34.4633 30.5434 34.4724C30.5299 34.5305 30.5152 34.5857 30.5006 34.642C30.5006 34.6524 30.4955 34.6617 30.4932 34.6722C30.4617 34.7914 30.4284 34.9102 30.3934 35.0287C30.3934 35.0322 30.3934 35.0362 30.3895 35.0403C30.3709 35.1042 30.3511 35.1675 30.3331 35.2307C30.315 35.294 30.2964 35.3469 30.2767 35.4049L30.2699 35.427L30.2101 35.6012C30.191 35.6552 30.1718 35.7092 30.1538 35.7626C30.1442 35.7887 30.1346 35.8148 30.1244 35.8404C30.1098 35.8816 30.094 35.9228 30.0776 35.9641C30.0753 35.9718 30.0725 35.9794 30.0692 35.9867C30.0472 36.0448 30.024 36.1028 30.0009 36.1609C29.9716 36.2335 29.9411 36.3061 29.9107 36.3775C29.8887 36.428 29.8667 36.4785 29.8441 36.529C29.8176 36.5871 29.7911 36.6492 29.7635 36.7084V36.7119C29.7105 36.828 29.6554 36.9422 29.5983 37.0545C29.5951 37.0601 29.5923 37.0659 29.5898 37.0719L29.5047 37.2379C29.5031 37.2403 29.5018 37.2429 29.5007 37.2455L29.4127 37.4104C29.4124 37.4117 29.4124 37.4131 29.4127 37.4145C29.3857 37.4638 29.3563 37.5137 29.3304 37.5625L29.3112 37.5974C29.2813 37.6496 29.2548 37.7013 29.2216 37.753C29.1883 37.8046 29.1652 37.8464 29.1392 37.8923L29.1217 37.9213C29.0879 37.9794 29.0535 38.0328 29.0191 38.0886C28.9847 38.1443 28.9492 38.1989 28.9142 38.2535C28.8792 38.308 28.8432 38.3626 28.8065 38.4166C28.7698 38.4706 28.7337 38.5246 28.6971 38.578C28.6604 38.6314 28.6227 38.6849 28.5843 38.7377C28.546 38.7905 28.5172 38.8312 28.4839 38.877L28.4698 38.8956C28.3931 39.0001 28.3136 39.1035 28.2335 39.2057C28.1535 39.3079 28.0711 39.4083 27.9882 39.5076C27.894 39.6202 27.7987 39.73 27.7017 39.8386L27.603 39.9465L27.4711 40.0882C27.3876 40.1765 27.3019 40.2624 27.2167 40.3489C27.1316 40.4354 27.0442 40.5196 26.9556 40.6026L26.7746 40.7664C26.7272 40.8094 26.6787 40.8523 26.6297 40.8947C26.5445 40.9708 26.4605 41.0445 26.3703 41.1171L26.3297 41.1508L26.1853 41.2669L26.033 41.3865C26.0311 41.3875 26.0294 41.3889 26.028 41.3906C25.9276 41.468 25.8261 41.544 25.7234 41.6187L25.7178 41.6228C22.8062 43.623 20.1156 43.9105 17.6856 43.4274C28.6745 38.6883 27.0741 21.938 15.035 19.738L14.9668 19.727L15.0057 19.7136C15.5777 19.516 16.1634 19.3634 16.7579 19.2573C16.9271 19.2259 17.0962 19.1992 17.2654 19.1766C18.5536 18.9977 19.8616 19.0369 21.1374 19.2927C21.2192 19.3089 21.301 19.3264 21.3822 19.3449C23.2979 19.7766 25.0828 20.6817 26.5829 21.9821C26.7302 22.1091 26.8748 22.2401 27.0165 22.3752C27.0526 22.4089 27.0876 22.4431 27.1226 22.4774C27.1925 22.5453 27.2619 22.6144 27.3295 22.6841C27.3972 22.7538 27.466 22.8252 27.5326 22.8966C27.5991 22.968 27.6651 23.04 27.7305 23.1132C27.8433 23.238 27.951 23.3657 28.0565 23.4958C28.0931 23.5405 28.1298 23.5858 28.1653 23.6305C28.2213 23.7002 28.276 23.7702 28.3294 23.8407C28.3773 23.9034 28.4241 23.9667 28.471 24.03C29.8333 25.8867 30.6539 28.1044 30.8367 30.4238C30.8457 30.4807 30.8502 30.5364 30.8547 30.5927Z" fill="url(#paint2_linear_572_15906)"/>
<path d="M10.1412 40.1104C4.2844 37.2215 -3.27412 39.5678 -6.14844 45.9519C-2.5123 37.1927 6.27968 38.0258 10.1412 40.1104Z" fill="#79B2EB"/>
<path d="M31.6925 31.7964C32.4034 40.225 26.1855 46.6229 19.0535 47.456C14.503 47.6521 10.6696 44.7318 6.54802 43.2232C6.17261 43.078 5.79006 42.9531 5.40195 42.8488C2.42305 41.9413 -0.667305 42.2367 -3.36644 43.8243C-4.37478 44.3523 -5.29633 45.0386 -6.09766 45.8585C-3.3017 39.3787 4.32736 36.9637 10.1399 39.9192C14.9848 42.7882 19.9564 45.5054 25.7003 41.5346L25.7059 41.5305C25.8084 41.4567 25.9097 41.3811 26.0099 41.3038C26.0113 41.3022 26.0131 41.3008 26.015 41.2998C27.3386 40.2799 28.4502 38.9993 29.2843 37.5332L29.3035 37.4985C29.3311 37.4501 29.3598 37.4005 29.3857 37.3514C29.3854 37.3501 29.3854 37.3487 29.3857 37.3474L29.4735 37.1835C29.4746 37.1809 29.4759 37.1784 29.4774 37.1761C29.5675 37.0041 29.6536 36.8299 29.7358 36.6534V36.6499C29.9845 36.1147 30.1944 35.5615 30.364 34.9948C30.364 34.9907 30.3668 34.9867 30.3679 34.9832C30.4223 34.8005 30.4723 34.6163 30.5177 34.4305C30.5204 34.4215 30.5227 34.4122 30.5244 34.4029C30.6423 33.9226 30.7297 33.4351 30.7862 32.9433C30.7862 32.9265 30.7901 32.911 30.7912 32.8954C30.8412 32.455 30.8661 32.0119 30.8655 31.5685C30.8655 31.3839 30.8616 31.1987 30.8526 31.0147C30.8526 30.9991 30.8526 30.9829 30.8526 30.9679C30.8436 30.7822 30.8301 30.5958 30.8121 30.4107C30.2981 23.4664 23.9581 18.2702 17.2657 19.2331C17.1692 19.2456 17.0795 19.2911 17.0113 19.3623C15.7352 20.6644 16.27 22.9645 17.9654 23.5478C16.5019 24.9497 14.0178 23.9268 13.8562 21.8528C13.8294 21.5138 13.8695 21.1727 13.974 20.8499C14.0785 20.5271 14.2454 20.2291 14.4647 19.9738C14.4663 19.9723 14.4673 19.9703 14.4675 19.9681C14.4677 19.9659 14.4672 19.9637 14.4659 19.9619C14.4647 19.9601 14.4629 19.9588 14.4608 19.9582C14.4587 19.9576 14.4565 19.9579 14.4546 19.9588C11.877 20.9546 11.5888 24.7045 14.1022 26.0648C14.1038 26.0656 14.1051 26.0667 14.106 26.0682C14.1069 26.0697 14.1074 26.0714 14.1074 26.0732C14.1074 26.0749 14.1069 26.0767 14.106 26.0781C14.1051 26.0796 14.1038 26.0808 14.1022 26.0815C13.7942 26.2111 13.4686 26.2915 13.1368 26.3198C9.11994 26.4796 8.24968 21.0763 11.9232 19.7096L12.1123 19.6346C12.5628 19.4411 13.023 19.2722 13.4909 19.1287L15.1796 18.7248C16.2264 18.5397 17.2902 18.4749 18.351 18.5316C25.3001 18.9083 31.0879 24.4899 31.6925 31.7964Z" fill="url(#paint3_linear_572_15906)"/>
<path d="M31.6925 31.7964C32.4034 40.225 26.1855 46.6229 19.0535 47.456C14.503 47.6521 10.6696 44.7318 6.54802 43.2232C6.17261 43.078 5.79006 42.9531 5.40195 42.8488C2.42305 41.9413 -0.667305 42.2367 -3.36644 43.8243C-4.37478 44.3523 -5.29633 45.0386 -6.09766 45.8585C-3.3017 39.3787 4.32736 36.9637 10.1399 39.9192C14.9848 42.7882 19.9564 45.5054 25.7003 41.5346L25.7059 41.5305C25.8084 41.4567 25.9097 41.3811 26.0099 41.3038C26.0113 41.3022 26.0131 41.3008 26.015 41.2998C27.3386 40.2799 28.4502 38.9993 29.2843 37.5332L29.3035 37.4985C29.3311 37.4501 29.3598 37.4005 29.3857 37.3514C29.3854 37.3501 29.3854 37.3487 29.3857 37.3474L29.4735 37.1835C29.4746 37.1809 29.4759 37.1784 29.4774 37.1761C29.5675 37.0041 29.6536 36.8299 29.7358 36.6534V36.6499C29.9845 36.1147 30.1944 35.5615 30.364 34.9948C30.364 34.9907 30.3668 34.9867 30.3679 34.9832C30.4223 34.8005 30.4723 34.6163 30.5177 34.4305C30.5204 34.4215 30.5227 34.4122 30.5244 34.4029C30.6423 33.9226 30.7297 33.4351 30.7862 32.9433C30.7862 32.9265 30.7901 32.911 30.7912 32.8954C30.8412 32.455 30.8661 32.0119 30.8655 31.5685C30.8655 31.3839 30.8616 31.1987 30.8526 31.0147C30.8526 30.9991 30.8526 30.9829 30.8526 30.9679C30.8436 30.7822 30.8301 30.5958 30.8121 30.4107C30.2981 23.4664 23.9581 18.2702 17.2657 19.2331C17.1692 19.2456 17.0795 19.2911 17.0113 19.3623C15.7352 20.6644 16.27 22.9645 17.9654 23.5478C16.5019 24.9497 14.0178 23.9268 13.8562 21.8528C13.8294 21.5138 13.8695 21.1727 13.974 20.8499C14.0785 20.5271 14.2454 20.2291 14.4647 19.9738C14.4663 19.9723 14.4673 19.9703 14.4675 19.9681C14.4677 19.9659 14.4672 19.9637 14.4659 19.9619C14.4647 19.9601 14.4629 19.9588 14.4608 19.9582C14.4587 19.9576 14.4565 19.9579 14.4546 19.9588C11.877 20.9546 11.5888 24.7045 14.1022 26.0648C14.1038 26.0656 14.1051 26.0667 14.106 26.0682C14.1069 26.0697 14.1074 26.0714 14.1074 26.0732C14.1074 26.0749 14.1069 26.0767 14.106 26.0781C14.1051 26.0796 14.1038 26.0808 14.1022 26.0815C13.7942 26.2111 13.4686 26.2915 13.1368 26.3198C9.11994 26.4796 8.24968 21.0763 11.9232 19.7096L12.1123 19.6346C12.5628 19.4411 13.023 19.2722 13.4909 19.1287L15.1796 18.7248C16.2264 18.5397 17.2902 18.4749 18.351 18.5316C25.3001 18.9083 31.0879 24.4899 31.6925 31.7964Z" fill="url(#paint4_linear_572_15906)"/>
<path d="M-5.56183 47.5225C-5.57999 47.5361 -5.6026 47.5424 -5.6252 47.5402C-5.6478 47.538 -5.66875 47.5274 -5.6839 47.5104C-5.69905 47.4935 -5.7073 47.4715 -5.70702 47.4488C-5.70675 47.426 -5.69797 47.4042 -5.68242 47.3877C-2.0891 43.5755 1.95556 43.1541 6.90066 45.3341C9.92374 46.6116 12.971 48.4796 16.3198 48.4728C16.3427 48.4726 16.3649 48.481 16.3818 48.4964C16.3988 48.5119 16.4093 48.5331 16.4112 48.556C16.4131 48.5789 16.4063 48.6016 16.3922 48.6196C16.3781 48.6377 16.3576 48.6497 16.335 48.6533C11.3572 49.5213 6.90123 45.5416 2.07896 44.9957C-0.84212 44.6375 -3.31862 45.8298 -5.56183 47.5225Z" fill="url(#paint5_linear_572_15906)"/>
<path d="M-5.56183 47.5225C-5.57999 47.5361 -5.6026 47.5424 -5.6252 47.5402C-5.6478 47.538 -5.66875 47.5274 -5.6839 47.5104C-5.69905 47.4935 -5.7073 47.4715 -5.70702 47.4488C-5.70675 47.426 -5.69797 47.4042 -5.68242 47.3877C-2.0891 43.5755 1.95556 43.1541 6.90066 45.3341C9.92374 46.6116 12.971 48.4796 16.3198 48.4728C16.3427 48.4726 16.3649 48.481 16.3818 48.4964C16.3988 48.5119 16.4093 48.5331 16.4112 48.556C16.4131 48.5789 16.4063 48.6016 16.3922 48.6196C16.3781 48.6377 16.3576 48.6497 16.335 48.6533C11.3572 49.5213 6.90123 45.5416 2.07896 44.9957C-0.84212 44.6375 -3.31862 45.8298 -5.56183 47.5225Z" fill="url(#paint6_linear_572_15906)"/>
<path d="M20.277 47.4758C19.1838 47.7375 18.0281 47.773 16.8961 47.6394C15.7641 47.5057 14.6506 47.2068 13.5795 46.8345C11.4348 46.0844 9.43562 45.0612 7.37779 44.3207C6.86446 44.134 6.34606 43.9687 5.82371 43.83C5.30482 43.6886 4.77797 43.5782 4.24597 43.4995C3.71568 43.4212 3.18056 43.3803 2.64456 43.3771C2.51101 43.3771 2.3769 43.3816 2.24279 43.3838C2.10868 43.3861 1.97514 43.3991 1.84103 43.4053C1.70692 43.4115 1.57394 43.429 1.43983 43.4408C1.30572 43.4527 1.17387 43.4752 1.03976 43.4921C-0.0263433 43.6478 -1.07385 43.9699 -2.08812 44.3946C-2.59525 44.6083 -3.09055 44.8542 -3.58303 45.1137L-3.95267 45.3145C-4.07495 45.381 -4.19384 45.4532 -4.31555 45.522C-4.56179 45.6557 -4.79451 45.8103 -5.03906 45.9507C-4.62425 45.5694 -4.18937 45.2105 -3.7363 44.8757C-3.27942 44.5393 -2.80321 44.2301 -2.31013 43.9496C-2.29717 43.9422 -2.28421 43.9343 -2.27012 43.927C-1.28092 43.3673 -0.214869 42.9562 0.89382 42.707C2.03413 42.4615 3.20716 42.4064 4.36542 42.544C4.94132 42.6111 5.51222 42.7159 6.07446 42.8576C6.2142 42.8926 6.35319 42.9302 6.49143 42.9704L6.50721 42.9744C6.89489 43.0838 7.27693 43.2079 7.65446 43.3404L7.72038 43.3635C8.25794 43.5576 8.7848 43.7725 9.30433 43.9952C9.82385 44.218 10.3344 44.4555 10.8415 44.6941L12.3539 45.4081C12.6058 45.526 12.8576 45.6405 13.1095 45.7544C13.3614 45.8684 13.6133 45.98 13.8668 46.0883C14.8811 46.5209 15.9128 46.896 16.9817 47.147C17.5176 47.2741 18.0612 47.3662 18.6091 47.4228C19.1288 47.4747 19.6512 47.4935 20.1733 47.4792C20.2077 47.4781 20.2426 47.4775 20.277 47.4758Z" fill="url(#paint7_linear_572_15906)"/>
<path d="M20.277 47.4758C19.1838 47.7375 18.0281 47.773 16.8961 47.6394C15.7641 47.5057 14.6506 47.2068 13.5795 46.8345C11.4348 46.0844 9.43562 45.0612 7.37779 44.3207C6.86446 44.134 6.34606 43.9687 5.82371 43.83C5.30482 43.6886 4.77797 43.5782 4.24597 43.4995C3.71568 43.4212 3.18056 43.3803 2.64456 43.3771C2.51101 43.3771 2.3769 43.3816 2.24279 43.3838C2.10868 43.3861 1.97514 43.3991 1.84103 43.4053C1.70692 43.4115 1.57394 43.429 1.43983 43.4408C1.30572 43.4527 1.17387 43.4752 1.03976 43.4921C-0.0263433 43.6478 -1.07385 43.9699 -2.08812 44.3946C-2.59525 44.6083 -3.09055 44.8542 -3.58303 45.1137L-3.95267 45.3145C-4.07495 45.381 -4.19384 45.4532 -4.31555 45.522C-4.56179 45.6557 -4.79451 45.8103 -5.03906 45.9507C-4.62425 45.5694 -4.18937 45.2105 -3.7363 44.8757C-3.27942 44.5393 -2.80321 44.2301 -2.31013 43.9496C-2.29717 43.9422 -2.28421 43.9343 -2.27012 43.927C-1.28092 43.3673 -0.214869 42.9562 0.89382 42.707C2.03413 42.4615 3.20716 42.4064 4.36542 42.544C4.94132 42.6111 5.51222 42.7159 6.07446 42.8576C6.2142 42.8926 6.35319 42.9302 6.49143 42.9704L6.50721 42.9744C6.89489 43.0838 7.27693 43.2079 7.65446 43.3404L7.72038 43.3635C8.25794 43.5576 8.7848 43.7725 9.30433 43.9952C9.82385 44.218 10.3344 44.4555 10.8415 44.6941L12.3539 45.4081C12.6058 45.526 12.8576 45.6405 13.1095 45.7544C13.3614 45.8684 13.6133 45.98 13.8668 46.0883C14.8811 46.5209 15.9128 46.896 16.9817 47.147C17.5176 47.2741 18.0612 47.3662 18.6091 47.4228C19.1288 47.4747 19.6512 47.4935 20.1733 47.4792C20.2077 47.4781 20.2426 47.4775 20.277 47.4758Z" fill="url(#paint8_linear_572_15906)"/>
<path d="M12.5134 36.3906C12.3612 36.7404 12.1748 37.0743 11.957 37.3875C11.9258 37.1746 11.8875 36.8921 11.831 36.5682C11.7232 35.8853 11.5396 35.2166 11.2837 34.5744C11.0759 34.0439 10.7624 33.5612 10.3623 33.1558C10.678 33.6959 10.9523 34.2592 11.1829 34.8408C11.4091 35.394 11.5892 35.965 11.7211 36.548C11.7844 36.8304 11.8319 37.116 11.8633 37.4036C11.3798 37.1909 10.943 36.8847 10.578 36.5026C8.9652 34.7742 9.88755 32.2124 9.88755 32.2124C9.88755 32.2124 10.0609 32.2669 10.323 32.3809C10.84 32.603 11.3202 32.9023 11.7473 33.2688C12.1091 33.5754 12.3984 33.9586 12.5941 34.3908C12.9015 35.1001 12.7534 35.8226 12.5134 36.3906Z" fill="#639900"/>
<path d="M12.5942 34.391C12.399 33.9591 12.1105 33.5758 11.7494 33.269L11.2837 34.5747C11.5418 35.2182 11.727 35.8887 11.8361 36.5735C11.8926 36.8974 11.9309 37.1789 11.9621 37.3928C12.1784 37.0778 12.3631 36.7422 12.5135 36.3908C12.7534 35.8228 12.9016 35.1004 12.5942 34.391ZM11.1829 34.841L10.5781 36.5028C10.9432 36.8834 11.3796 37.1882 11.8623 37.3998C11.8309 37.1122 11.7835 36.8265 11.7202 36.5442C11.5884 35.9626 11.4086 35.393 11.1829 34.841Z" fill="#D1D3D4"/>
<path d="M9.88968 32.2134C9.88968 32.2134 8.56614 35.8861 11.8604 37.3996C11.8292 37.112 11.7821 36.8263 11.7192 36.544C11.4753 36.4774 11.2102 36.3028 10.9239 35.9789C9.72941 34.6249 10.052 33.1144 10.3251 32.3778C10.1829 32.3156 10.0376 32.2607 9.88968 32.2134Z" fill="#D1D3D4"/>
<path d="M20.3678 36.1568L20.1662 35.614L20.0947 35.6796C19.8265 35.9258 19.5907 36.1377 19.4203 36.3193C18.7147 37.0508 18.8094 37.8328 18.9163 38.0416C18.9214 38.0522 18.9275 38.0624 18.9344 38.0719L19.1814 38.3837H21.1702L20.3678 36.1568ZM17.2954 27.6602H14.2713L10.3965 38.3837H13.1282L15.7692 30.5469L16.6765 33.2499C17.2309 32.581 17.9597 32.0018 18.6814 31.5034L17.2954 27.6602Z" fill="#F77B1D"/>
<path d="M20.3678 36.1568L20.1662 35.614L20.0947 35.6796C19.8265 35.9258 19.5907 36.1377 19.4203 36.3193C18.7147 37.0508 18.8094 37.8328 18.9163 38.0416C18.9214 38.0522 18.9275 38.0624 18.9344 38.0719L19.1814 38.3837H21.1702L20.3678 36.1568ZM17.2954 27.6602H14.2713L10.3965 38.3837H13.1282L15.7692 30.5469L16.6765 33.2499C17.2309 32.581 17.9597 32.0018 18.6814 31.5034L17.2954 27.6602Z" fill="url(#paint9_linear_572_15906)"/>
<path d="M20.1696 35.6138L20.098 35.6794C19.8299 35.9255 19.594 36.1374 19.4237 36.3191C18.7181 37.0506 18.8128 37.8325 18.9197 38.0414C19.0338 37.6137 19.2584 37.2236 19.5708 36.9103C19.7795 36.6944 20.0577 36.4421 20.3692 36.1566L20.1696 35.6138Z" fill="#D1D3D4"/>
<path d="M22.0949 27.5913C22.0949 27.5913 22.2602 28.8919 21.48 30.0129C21.2323 30.3682 20.9155 30.6699 20.5486 30.8998C18.835 31.9865 16.0538 33.5403 16.0962 35.7227C16.0986 35.8581 16.1118 35.993 16.1355 36.1263C16.5599 38.5247 18.5406 38.3814 18.5406 38.3814C18.2906 38.0656 18.1233 36.9365 19.0638 35.9659C20.0043 34.9953 22.3379 33.2951 22.8227 31.0491C23.3076 28.8031 22.0949 27.5913 22.0949 27.5913ZM18.5427 38.3814C17.4338 37.887 17.0105 37.0001 17.1143 36.088C17.2072 35.434 17.5067 34.8269 17.9691 34.3556C19.0346 33.2194 20.8057 32.163 20.8924 32.1287C20.7986 32.1933 18.0578 34.0266 17.5719 35.7681C17.5508 35.8448 17.5326 35.9205 17.5195 35.9942C17.207 37.5702 18.4751 38.337 18.5427 38.3814Z" fill="#639900"/>
<path d="M22.7265 31.2181C22.2417 33.4641 19.9041 35.1632 18.9676 36.1348C18.0312 37.1065 18.1945 38.2345 18.4445 38.5504C18.4445 38.5504 16.4637 38.6936 16.0393 36.2953C16.0156 36.162 16.0024 36.027 16 35.8917C16.1296 36.0248 16.2876 36.1268 16.4622 36.19C16.6367 36.2533 16.8234 36.2762 17.008 36.2569C16.9072 37.165 17.3316 38.056 18.4364 38.5504C18.3739 38.506 17.1058 37.7432 17.4133 36.1631C17.593 36.0968 17.765 36.0112 17.9263 35.9078C19.4726 34.9402 21.9131 31.7579 21.3788 30.1818C22.159 29.0608 21.9937 27.7603 21.9937 27.7603C21.9937 27.7603 23.2124 28.972 22.7265 31.2181Z" fill="#D1D3D4"/>
</g>
<defs>
<linearGradient id="paint0_linear_572_15906" x1="11.9297" y1="7.58324" x2="27.0036" y2="17.4696" gradientUnits="userSpaceOnUse">
<stop stop-color="#D7F40E"/>
<stop offset="1" stop-color="#6DC50F"/>
</linearGradient>
<linearGradient id="paint1_linear_572_15906" x1="0.70897" y1="13.3475" x2="26.1225" y2="51.8449" gradientUnits="userSpaceOnUse">
<stop stop-color="#D7F40E"/>
<stop offset="1" stop-color="#6DC50F"/>
</linearGradient>
<linearGradient id="paint2_linear_572_15906" x1="12.7414" y1="15.4913" x2="34.5965" y2="27.4071" gradientUnits="userSpaceOnUse">
<stop stop-color="#43C9D4"/>
<stop offset="1" stop-color="#0049B2" stop-opacity="0.88"/>
</linearGradient>
<linearGradient id="paint3_linear_572_15906" x1="-6.9816" y1="35.1569" x2="31.709" y2="31.9536" gradientUnits="userSpaceOnUse">
<stop offset="0.01" stop-color="#3866BD"/>
<stop offset="0.02" stop-color="#406EC1"/>
<stop offset="0.06" stop-color="#5B89CF"/>
<stop offset="0.11" stop-color="#719FDA"/>
<stop offset="0.17" stop-color="#80AEE1"/>
<stop offset="0.23" stop-color="#88B6E6"/>
<stop offset="0.33" stop-color="#8BB9E7"/>
<stop offset="1" stop-color="#CBE6F5"/>
</linearGradient>
<linearGradient id="paint4_linear_572_15906" x1="-11.3864" y1="14.2979" x2="19.1217" y2="47.8375" gradientUnits="userSpaceOnUse">
<stop stop-color="#43C9D4"/>
<stop offset="1" stop-color="#0049B2" stop-opacity="0.88"/>
</linearGradient>
<linearGradient id="paint5_linear_572_15906" x1="-6.16622" y1="47.6117" x2="16.6446" y2="45.6781" gradientUnits="userSpaceOnUse">
<stop offset="0.01" stop-color="#3866BD"/>
<stop offset="0.02" stop-color="#406EC1"/>
<stop offset="0.06" stop-color="#5B89CF"/>
<stop offset="0.11" stop-color="#719FDA"/>
<stop offset="0.17" stop-color="#80AEE1"/>
<stop offset="0.23" stop-color="#88B6E6"/>
<stop offset="0.33" stop-color="#8BB9E7"/>
<stop offset="1" stop-color="#CBE6F5"/>
</linearGradient>
<linearGradient id="paint6_linear_572_15906" x1="-8.79801" y1="43.3244" x2="-6.37866" y2="52.7806" gradientUnits="userSpaceOnUse">
<stop stop-color="#43C9D4"/>
<stop offset="1" stop-color="#0049B2" stop-opacity="0.88"/>
</linearGradient>
<linearGradient id="paint7_linear_572_15906" x1="-4.99619" y1="46.4198" x2="20.0117" y2="44.2999" gradientUnits="userSpaceOnUse">
<stop stop-color="#345C97"/>
<stop offset="0.49" stop-color="#8BB9E7"/>
<stop offset="1" stop-color="#345C97"/>
</linearGradient>
<linearGradient id="paint8_linear_572_15906" x1="-8.57688" y1="41.7069" x2="-5.99822" y2="52.1748" gradientUnits="userSpaceOnUse">
<stop stop-color="#43C9D4"/>
<stop offset="1" stop-color="#0049B2" stop-opacity="0.88"/>
</linearGradient>
<linearGradient id="paint9_linear_572_15906" x1="10.6352" y1="26.4477" x2="19.1245" y2="39.3801" gradientUnits="userSpaceOnUse">
<stop stop-color="#D7F40E"/>
<stop offset="0.0001" stop-color="#D7F40E"/>
<stop offset="1" stop-color="#6DC50F"/>
</linearGradient>
<clipPath id="clip0_572_15906">
<rect x="2.41797" y="19.3906" width="27.2126" height="27.2386" rx="13.6063" fill="white"/>
</clipPath>
</defs>
</svg>
