<svg width="197" height="53" viewBox="0 0 197 53" fill="none" xmlns="http://www.w3.org/2000/svg">
<path d="M15.084 2.03267C16.5898 1.89692 20.212 2.11307 22.6533 4.06294C23.7993 4.9797 26.304 7.84737 26.6641 11.979C26.7153 12.5671 27.1035 14.2171 28.2451 16.1108C27.5303 15.7276 25.8407 14.2549 24.8027 11.4282C24.1788 9.76387 22.475 6.1714 20.6494 5.11763C21.5695 6.13031 23.0082 10.0434 23.3672 11.0424C24.4511 14.0592 24.4716 14.7124 26.9805 17.1294C27.4076 17.5408 28.3137 18.3128 29.4287 19.0571C29.8322 17.5939 30.7214 15.6097 32.4844 13.5112C34.2681 11.694 37.4592 7.16401 35.9531 3.58443C37.1101 4.43017 39.4265 6.91331 39.4355 10.0766C39.4119 11.1294 38.5908 14.8442 35.4922 16.7749C34.0056 17.701 32.3166 17.7197 31.6748 18.4633C32.5733 16.6918 33.4377 16.2031 34.5059 15.4008C35.6833 14.5165 37.6586 12.4423 37.2852 9.97896C37.2762 10.7705 36.6319 12.7919 34.127 14.5424C32.9375 15.4086 30.7959 17.3045 29.7432 19.2622C30.2743 19.6016 30.8444 19.9283 31.4277 20.2026C30.9084 20.1471 30.2263 20.0344 29.459 19.8559C29.2947 20.2526 29.184 20.648 29.1426 21.0336C29.1273 20.7457 29.156 20.327 29.2549 19.8061C26.9373 19.2419 23.9312 18.0838 22.2627 16.0473C21.6159 15.3778 20.1832 13.2494 19.6299 10.0932C19.2686 8.03219 18.3661 3.41432 15.084 2.03267Z" fill="#D9D9D9"/>
<path d="M15.084 2.03267C16.5898 1.89692 20.212 2.11307 22.6533 4.06294C23.7993 4.9797 26.304 7.84737 26.6641 11.979C26.7153 12.5671 27.1035 14.2171 28.2451 16.1108C27.5303 15.7276 25.8407 14.2549 24.8027 11.4282C24.1788 9.76387 22.475 6.1714 20.6494 5.11763C21.5695 6.13031 23.0082 10.0434 23.3672 11.0424C24.4511 14.0592 24.4716 14.7124 26.9805 17.1294C27.4076 17.5408 28.3137 18.3128 29.4287 19.0571C29.8322 17.5939 30.7214 15.6097 32.4844 13.5112C34.2681 11.694 37.4592 7.16401 35.9531 3.58443C37.1101 4.43017 39.4265 6.91331 39.4355 10.0766C39.4119 11.1294 38.5908 14.8442 35.4922 16.7749C34.0056 17.701 32.3166 17.7197 31.6748 18.4633C32.5733 16.6918 33.4377 16.2031 34.5059 15.4008C35.6833 14.5165 37.6586 12.4423 37.2852 9.97896C37.2762 10.7705 36.6319 12.7919 34.127 14.5424C32.9375 15.4086 30.7959 17.3045 29.7432 19.2622C30.2743 19.6016 30.8444 19.9283 31.4277 20.2026C30.9084 20.1471 30.2263 20.0344 29.459 19.8559C29.2947 20.2526 29.184 20.648 29.1426 21.0336C29.1273 20.7457 29.156 20.327 29.2549 19.8061C26.9373 19.2419 23.9312 18.0838 22.2627 16.0473C21.6159 15.3778 20.1832 13.2494 19.6299 10.0932C19.2686 8.03219 18.3661 3.41432 15.084 2.03267Z" fill="url(#paint0_linear_572_15899)"/>
<ellipse cx="27" cy="34.9845" rx="16" ry="16.0153" fill="url(#paint1_linear_572_15899)"/>
<g clip-path="url(#clip0_572_15899)">
<rect x="13.418" y="21.3906" width="27.2126" height="27.2386" rx="13.6063" fill="white"/>
<path d="M41.8547 32.5927C41.8609 32.663 41.866 32.7332 41.8705 32.8035C41.8745 32.8616 41.8779 32.9249 41.8807 32.9852C41.8807 33.0003 41.8807 33.0166 41.8807 33.0323C41.8807 33.0781 41.8846 33.124 41.8863 33.1699C41.888 33.2157 41.8863 33.2448 41.8897 33.2825C41.8931 33.3203 41.8897 33.3719 41.8897 33.4161C41.8897 33.4317 41.8897 33.448 41.8897 33.4637C41.8897 33.5061 41.8897 33.5479 41.8897 33.5897V33.6762C41.8897 33.7342 41.8897 33.7923 41.8897 33.8469C41.8897 33.9015 41.8897 33.9682 41.8841 34.0286C41.8841 34.0623 41.8841 34.0965 41.8801 34.1308C41.8801 34.154 41.8801 34.1767 41.8767 34.2005C41.8733 34.2243 41.8767 34.2585 41.8728 34.2847C41.8694 34.334 41.8666 34.3834 41.8626 34.4333C41.854 34.563 41.8429 34.6923 41.8294 34.8212C41.826 34.8568 41.822 34.8922 41.8175 34.9274C41.8175 34.9431 41.8175 34.9588 41.8124 34.9756C41.8079 35.0151 41.8034 35.0552 41.7983 35.0952C41.7893 35.1666 41.7797 35.2386 41.769 35.31C41.7628 35.3577 41.7555 35.4053 41.7482 35.4517C41.7369 35.5278 41.7239 35.6044 41.7104 35.6799C41.7002 35.738 41.6901 35.796 41.6788 35.8512C41.6788 35.8628 41.6748 35.8744 41.672 35.8866C41.6619 35.9412 41.6506 35.9958 41.6393 36.0503C41.6241 36.1223 41.6089 36.1949 41.5925 36.2669C41.579 36.325 41.5649 36.3859 41.5502 36.4446C41.5485 36.454 41.5462 36.4633 41.5434 36.4724C41.5299 36.5305 41.5152 36.5857 41.5006 36.642C41.5006 36.6524 41.4955 36.6617 41.4932 36.6722C41.4617 36.7914 41.4284 36.9102 41.3934 37.0287C41.3934 37.0322 41.3934 37.0362 41.3895 37.0403C41.3709 37.1042 41.3511 37.1675 41.3331 37.2307C41.315 37.294 41.2964 37.3469 41.2767 37.4049L41.2699 37.427L41.2101 37.6012C41.191 37.6552 41.1718 37.7092 41.1538 37.7626C41.1442 37.7887 41.1346 37.8148 41.1244 37.8404C41.1098 37.8816 41.094 37.9228 41.0776 37.9641C41.0753 37.9718 41.0725 37.9794 41.0692 37.9867C41.0472 38.0448 41.024 38.1028 41.0009 38.1609C40.9716 38.2335 40.9411 38.3061 40.9107 38.3775C40.8887 38.428 40.8667 38.4785 40.8441 38.529C40.8176 38.5871 40.7911 38.6492 40.7635 38.7084V38.7119C40.7105 38.828 40.6554 38.9422 40.5983 39.0545C40.5951 39.0601 40.5923 39.0659 40.5898 39.0719L40.5047 39.2379C40.5031 39.2403 40.5018 39.2429 40.5007 39.2455L40.4127 39.4104C40.4124 39.4117 40.4124 39.4131 40.4127 39.4145C40.3857 39.4638 40.3563 39.5137 40.3304 39.5625L40.3112 39.5974C40.2813 39.6496 40.2548 39.7013 40.2216 39.753C40.1883 39.8046 40.1652 39.8464 40.1392 39.8923L40.1217 39.9213C40.0879 39.9794 40.0535 40.0328 40.0191 40.0886C39.9847 40.1443 39.9492 40.1989 39.9142 40.2535C39.8792 40.308 39.8432 40.3626 39.8065 40.4166C39.7698 40.4706 39.7337 40.5246 39.6971 40.578C39.6604 40.6314 39.6227 40.6849 39.5843 40.7377C39.546 40.7905 39.5172 40.8312 39.4839 40.877L39.4698 40.8956C39.3931 41.0001 39.3136 41.1035 39.2335 41.2057C39.1535 41.3079 39.0711 41.4083 38.9882 41.5076C38.894 41.6202 38.7987 41.73 38.7017 41.8386L38.603 41.9465L38.4711 42.0882C38.3876 42.1765 38.3019 42.2624 38.2167 42.3489C38.1316 42.4354 38.0442 42.5196 37.9556 42.6027L37.7746 42.7664C37.7272 42.8094 37.6787 42.8523 37.6297 42.8947C37.5445 42.9708 37.4605 43.0445 37.3703 43.1171L37.3297 43.1508L37.1853 43.2669L37.033 43.3865C37.0311 43.3875 37.0294 43.3889 37.028 43.3906C36.9276 43.468 36.8261 43.544 36.7234 43.6187L36.7178 43.6228C33.8062 45.623 31.1156 45.9105 28.6856 45.4274C39.6745 40.6883 38.0741 23.938 26.035 21.738L25.9668 21.727L26.0057 21.7136C26.5777 21.516 27.1634 21.3634 27.7579 21.2573C27.9271 21.2259 28.0962 21.1992 28.2654 21.1766C29.5536 20.9977 30.8616 21.0369 32.1374 21.2927C32.2192 21.3089 32.301 21.3264 32.3822 21.3449C34.2979 21.7766 36.0828 22.6817 37.5829 23.9821C37.7302 24.1091 37.8748 24.2401 38.0165 24.3752C38.0526 24.4089 38.0876 24.4431 38.1226 24.4774C38.1925 24.5453 38.2619 24.6144 38.3295 24.6841C38.3972 24.7538 38.466 24.8252 38.5326 24.8966C38.5991 24.968 38.6651 25.04 38.7305 25.1132C38.8433 25.238 38.951 25.3657 39.0565 25.4958C39.0931 25.5405 39.1298 25.5858 39.1653 25.6305C39.2213 25.7002 39.276 25.7702 39.3294 25.8407C39.3773 25.9034 39.4241 25.9667 39.471 26.03C40.8333 27.8867 41.6539 30.1044 41.8367 32.4238C41.8457 32.4807 41.8502 32.5364 41.8547 32.5927Z" fill="url(#paint2_linear_572_15899)"/>
<path d="M21.1412 42.1104C15.2844 39.2215 7.72588 41.5678 4.85156 47.9519C8.4877 39.1927 17.2797 40.0258 21.1412 42.1104Z" fill="#79B2EB"/>
<path d="M42.6925 33.7964C43.4034 42.225 37.1855 48.6229 30.0535 49.456C25.503 49.6521 21.6696 46.7318 17.548 45.2232C17.1726 45.078 16.7901 44.9531 16.4019 44.8488C13.423 43.9413 10.3327 44.2367 7.63356 45.8243C6.62522 46.3523 5.70367 47.0386 4.90234 47.8585C7.6983 41.3787 15.3274 38.9637 21.1399 41.9192C25.9848 44.7882 30.9564 47.5054 36.7003 43.5346L36.7059 43.5305C36.8084 43.4567 36.9097 43.3811 37.0099 43.3038C37.0113 43.3022 37.0131 43.3008 37.015 43.2998C38.3386 42.2799 39.4502 40.9993 40.2843 39.5332L40.3035 39.4985C40.3311 39.4501 40.3598 39.4005 40.3857 39.3514C40.3854 39.3501 40.3854 39.3487 40.3857 39.3474L40.4735 39.1836C40.4746 39.1809 40.4759 39.1784 40.4774 39.1761C40.5675 39.0041 40.6536 38.8299 40.7358 38.6534V38.6499C40.9845 38.1147 41.1944 37.5615 41.364 36.9948C41.364 36.9907 41.3668 36.9867 41.3679 36.9832C41.4223 36.8005 41.4723 36.6163 41.5177 36.4305C41.5204 36.4215 41.5227 36.4122 41.5244 36.4029C41.6423 35.9226 41.7297 35.4351 41.7862 34.9433C41.7862 34.9266 41.7901 34.911 41.7912 34.8954C41.8412 34.455 41.866 34.0119 41.8655 33.5685C41.8655 33.3839 41.8616 33.1987 41.8526 33.0147C41.8526 32.9991 41.8526 32.9829 41.8526 32.9679C41.8436 32.7822 41.8301 32.5958 41.8121 32.4107C41.2981 25.4664 34.9581 20.2702 28.2657 21.2331C28.1692 21.2456 28.0795 21.2911 28.0113 21.3623C26.7352 22.6644 27.27 24.9645 28.9654 25.5478C27.5019 26.9497 25.0178 25.9268 24.8562 23.8528C24.8294 23.5138 24.8695 23.1727 24.974 22.8499C25.0785 22.5271 25.2454 22.2291 25.4647 21.9738C25.4663 21.9723 25.4673 21.9703 25.4675 21.9681C25.4677 21.9659 25.4672 21.9637 25.4659 21.9619C25.4647 21.9601 25.4629 21.9588 25.4608 21.9582C25.4587 21.9576 25.4565 21.9579 25.4546 21.9588C22.877 22.9546 22.5888 26.7045 25.1022 28.0648C25.1038 28.0656 25.1051 28.0667 25.106 28.0682C25.1069 28.0697 25.1074 28.0714 25.1074 28.0732C25.1074 28.0749 25.1069 28.0767 25.106 28.0781C25.1051 28.0796 25.1038 28.0808 25.1022 28.0815C24.7942 28.2111 24.4686 28.2915 24.1368 28.3198C20.1199 28.4796 19.2497 23.0763 22.9232 21.7096L23.1123 21.6346C23.5628 21.4411 24.023 21.2722 24.4909 21.1287L26.1796 20.7248C27.2264 20.5397 28.2902 20.4749 29.351 20.5316C36.3001 20.9083 42.0879 26.4899 42.6925 33.7964Z" fill="url(#paint3_linear_572_15899)"/>
<path d="M42.6925 33.7964C43.4034 42.225 37.1855 48.6229 30.0535 49.456C25.503 49.6521 21.6696 46.7318 17.548 45.2232C17.1726 45.078 16.7901 44.9531 16.4019 44.8488C13.423 43.9413 10.3327 44.2367 7.63356 45.8243C6.62522 46.3523 5.70367 47.0386 4.90234 47.8585C7.6983 41.3787 15.3274 38.9637 21.1399 41.9192C25.9848 44.7882 30.9564 47.5054 36.7003 43.5346L36.7059 43.5305C36.8084 43.4567 36.9097 43.3811 37.0099 43.3038C37.0113 43.3022 37.0131 43.3008 37.015 43.2998C38.3386 42.2799 39.4502 40.9993 40.2843 39.5332L40.3035 39.4985C40.3311 39.4501 40.3598 39.4005 40.3857 39.3514C40.3854 39.3501 40.3854 39.3487 40.3857 39.3474L40.4735 39.1836C40.4746 39.1809 40.4759 39.1784 40.4774 39.1761C40.5675 39.0041 40.6536 38.8299 40.7358 38.6534V38.6499C40.9845 38.1147 41.1944 37.5615 41.364 36.9948C41.364 36.9907 41.3668 36.9867 41.3679 36.9832C41.4223 36.8005 41.4723 36.6163 41.5177 36.4305C41.5204 36.4215 41.5227 36.4122 41.5244 36.4029C41.6423 35.9226 41.7297 35.4351 41.7862 34.9433C41.7862 34.9266 41.7901 34.911 41.7912 34.8954C41.8412 34.455 41.866 34.0119 41.8655 33.5685C41.8655 33.3839 41.8616 33.1987 41.8526 33.0147C41.8526 32.9991 41.8526 32.9829 41.8526 32.9679C41.8436 32.7822 41.8301 32.5958 41.8121 32.4107C41.2981 25.4664 34.9581 20.2702 28.2657 21.2331C28.1692 21.2456 28.0795 21.2911 28.0113 21.3623C26.7352 22.6644 27.27 24.9645 28.9654 25.5478C27.5019 26.9497 25.0178 25.9268 24.8562 23.8528C24.8294 23.5138 24.8695 23.1727 24.974 22.8499C25.0785 22.5271 25.2454 22.2291 25.4647 21.9738C25.4663 21.9723 25.4673 21.9703 25.4675 21.9681C25.4677 21.9659 25.4672 21.9637 25.4659 21.9619C25.4647 21.9601 25.4629 21.9588 25.4608 21.9582C25.4587 21.9576 25.4565 21.9579 25.4546 21.9588C22.877 22.9546 22.5888 26.7045 25.1022 28.0648C25.1038 28.0656 25.1051 28.0667 25.106 28.0682C25.1069 28.0697 25.1074 28.0714 25.1074 28.0732C25.1074 28.0749 25.1069 28.0767 25.106 28.0781C25.1051 28.0796 25.1038 28.0808 25.1022 28.0815C24.7942 28.2111 24.4686 28.2915 24.1368 28.3198C20.1199 28.4796 19.2497 23.0763 22.9232 21.7096L23.1123 21.6346C23.5628 21.4411 24.023 21.2722 24.4909 21.1287L26.1796 20.7248C27.2264 20.5397 28.2902 20.4749 29.351 20.5316C36.3001 20.9083 42.0879 26.4899 42.6925 33.7964Z" fill="url(#paint4_linear_572_15899)"/>
<path d="M5.43817 49.5225C5.42001 49.5361 5.3974 49.5424 5.3748 49.5402C5.3522 49.538 5.33125 49.5274 5.3161 49.5104C5.30095 49.4935 5.2927 49.4715 5.29298 49.4488C5.29325 49.426 5.30203 49.4042 5.31758 49.3877C8.9109 45.5755 12.9556 45.1541 17.9007 47.3341C20.9237 48.6116 23.971 50.4796 27.3198 50.4728C27.3427 50.4726 27.3649 50.481 27.3818 50.4964C27.3988 50.5119 27.4093 50.5331 27.4112 50.556C27.4131 50.5789 27.4063 50.6016 27.3922 50.6196C27.3781 50.6377 27.3576 50.6497 27.335 50.6533C22.3572 51.5213 17.9012 47.5416 13.079 46.9957C10.1579 46.6375 7.68138 47.8298 5.43817 49.5225Z" fill="url(#paint5_linear_572_15899)"/>
<path d="M5.43817 49.5225C5.42001 49.5361 5.3974 49.5424 5.3748 49.5402C5.3522 49.538 5.33125 49.5274 5.3161 49.5104C5.30095 49.4935 5.2927 49.4715 5.29298 49.4488C5.29325 49.426 5.30203 49.4042 5.31758 49.3877C8.9109 45.5755 12.9556 45.1541 17.9007 47.3341C20.9237 48.6116 23.971 50.4796 27.3198 50.4728C27.3427 50.4726 27.3649 50.481 27.3818 50.4964C27.3988 50.5119 27.4093 50.5331 27.4112 50.556C27.4131 50.5789 27.4063 50.6016 27.3922 50.6196C27.3781 50.6377 27.3576 50.6497 27.335 50.6533C22.3572 51.5213 17.9012 47.5416 13.079 46.9957C10.1579 46.6375 7.68138 47.8298 5.43817 49.5225Z" fill="url(#paint6_linear_572_15899)"/>
<path d="M31.277 49.4758C30.1838 49.7375 29.0281 49.773 27.8961 49.6394C26.7641 49.5057 25.6506 49.2068 24.5795 48.8345C22.4348 48.0844 20.4356 47.0612 18.3778 46.3207C17.8645 46.134 17.3461 45.9687 16.8237 45.83C16.3048 45.6886 15.778 45.5782 15.246 45.4995C14.7157 45.4212 14.1806 45.3803 13.6446 45.3771C13.511 45.3771 13.3769 45.3816 13.2428 45.3838C13.1087 45.3861 12.9751 45.3991 12.841 45.4053C12.7069 45.4115 12.5739 45.429 12.4398 45.4408C12.3057 45.4527 12.1739 45.4752 12.0398 45.4921C10.9737 45.6478 9.92615 45.9699 8.91188 46.3946C8.40475 46.6083 7.90945 46.8542 7.41697 47.1137L7.04733 47.3145C6.92505 47.381 6.80616 47.4532 6.68445 47.522C6.43821 47.6557 6.20549 47.8103 5.96094 47.9507C6.37575 47.5694 6.81063 47.2105 7.2637 46.8757C7.72058 46.5393 8.19679 46.2301 8.68987 45.9496C8.70283 45.9422 8.71579 45.9343 8.72988 45.927C9.71908 45.3673 10.7851 44.9562 11.8938 44.707C13.0341 44.4615 14.2072 44.4064 15.3654 44.544C15.9413 44.6111 16.5122 44.7159 17.0745 44.8576C17.2142 44.8926 17.3532 44.9302 17.4914 44.9704L17.5072 44.9744C17.8949 45.0838 18.2769 45.2079 18.6545 45.3404L18.7204 45.3635C19.2579 45.5576 19.7848 45.7725 20.3043 45.9952C20.8239 46.218 21.3344 46.4555 21.8415 46.6941L23.3539 47.4081C23.6058 47.526 23.8576 47.6405 24.1095 47.7544C24.3614 47.8684 24.6133 47.98 24.8668 48.0883C25.8811 48.5209 26.9128 48.896 27.9817 49.147C28.5176 49.2741 29.0612 49.3662 29.6091 49.4228C30.1288 49.4747 30.6512 49.4935 31.1733 49.4792C31.2077 49.4781 31.2426 49.4775 31.277 49.4758Z" fill="url(#paint7_linear_572_15899)"/>
<path d="M31.277 49.4758C30.1838 49.7375 29.0281 49.773 27.8961 49.6394C26.7641 49.5057 25.6506 49.2068 24.5795 48.8345C22.4348 48.0844 20.4356 47.0612 18.3778 46.3207C17.8645 46.134 17.3461 45.9687 16.8237 45.83C16.3048 45.6886 15.778 45.5782 15.246 45.4995C14.7157 45.4212 14.1806 45.3803 13.6446 45.3771C13.511 45.3771 13.3769 45.3816 13.2428 45.3838C13.1087 45.3861 12.9751 45.3991 12.841 45.4053C12.7069 45.4115 12.5739 45.429 12.4398 45.4408C12.3057 45.4527 12.1739 45.4752 12.0398 45.4921C10.9737 45.6478 9.92615 45.9699 8.91188 46.3946C8.40475 46.6083 7.90945 46.8542 7.41697 47.1137L7.04733 47.3145C6.92505 47.381 6.80616 47.4532 6.68445 47.522C6.43821 47.6557 6.20549 47.8103 5.96094 47.9507C6.37575 47.5694 6.81063 47.2105 7.2637 46.8757C7.72058 46.5393 8.19679 46.2301 8.68987 45.9496C8.70283 45.9422 8.71579 45.9343 8.72988 45.927C9.71908 45.3673 10.7851 44.9562 11.8938 44.707C13.0341 44.4615 14.2072 44.4064 15.3654 44.544C15.9413 44.6111 16.5122 44.7159 17.0745 44.8576C17.2142 44.8926 17.3532 44.9302 17.4914 44.9704L17.5072 44.9744C17.8949 45.0838 18.2769 45.2079 18.6545 45.3404L18.7204 45.3635C19.2579 45.5576 19.7848 45.7725 20.3043 45.9952C20.8239 46.218 21.3344 46.4555 21.8415 46.6941L23.3539 47.4081C23.6058 47.526 23.8576 47.6405 24.1095 47.7544C24.3614 47.8684 24.6133 47.98 24.8668 48.0883C25.8811 48.5209 26.9128 48.896 27.9817 49.147C28.5176 49.2741 29.0612 49.3662 29.6091 49.4228C30.1288 49.4747 30.6512 49.4935 31.1733 49.4792C31.2077 49.4781 31.2426 49.4775 31.277 49.4758Z" fill="url(#paint8_linear_572_15899)"/>
<path d="M23.5134 38.3906C23.3612 38.7404 23.1748 39.0743 22.957 39.3875C22.9258 39.1746 22.8875 38.8921 22.831 38.5682C22.7232 37.8853 22.5396 37.2166 22.2837 36.5744C22.0759 36.0439 21.7624 35.5612 21.3623 35.1558C21.678 35.6959 21.9523 36.2592 22.1829 36.8408C22.4091 37.394 22.5892 37.965 22.7211 38.548C22.7844 38.8304 22.8319 39.116 22.8633 39.4036C22.3798 39.1909 21.943 38.8847 21.578 38.5026C19.9652 36.7742 20.8875 34.2124 20.8875 34.2124C20.8875 34.2124 21.0609 34.2669 21.323 34.3809C21.84 34.603 22.3202 34.9023 22.7473 35.2688C23.1091 35.5754 23.3984 35.9586 23.5941 36.3908C23.9015 37.1001 23.7534 37.8226 23.5134 38.3906Z" fill="#639900"/>
<path d="M23.5942 36.391C23.399 35.9591 23.1105 35.5758 22.7494 35.269L22.2837 36.5747C22.5418 37.2182 22.727 37.8887 22.8361 38.5735C22.8926 38.8974 22.9309 39.1789 22.9621 39.3928C23.1784 39.0778 23.3631 38.7422 23.5135 38.3908C23.7534 37.8228 23.9016 37.1004 23.5942 36.391ZM22.1829 36.841L21.5781 38.5028C21.9432 38.8834 22.3796 39.1882 22.8623 39.3998C22.8309 39.1122 22.7835 38.8265 22.7202 38.5442C22.5884 37.9626 22.4086 37.393 22.1829 36.841Z" fill="#D1D3D4"/>
<path d="M20.8897 34.2134C20.8897 34.2134 19.5661 37.8861 22.8604 39.3996C22.8292 39.112 22.7821 38.8263 22.7192 38.544C22.4753 38.4774 22.2102 38.3028 21.9239 37.9789C20.7294 36.6249 21.052 35.1144 21.3251 34.3778C21.1829 34.3156 21.0376 34.2607 20.8897 34.2134Z" fill="#D1D3D4"/>
<path d="M31.3678 38.1568L31.1662 37.614L31.0947 37.6796C30.8265 37.9258 30.5907 38.1377 30.4203 38.3193C29.7147 39.0508 29.8094 39.8328 29.9163 40.0416C29.9214 40.0522 29.9275 40.0624 29.9344 40.0719L30.1814 40.3837H32.1702L31.3678 38.1568ZM28.2954 29.6602H25.2713L21.3965 40.3837H24.1282L26.7692 32.5469L27.6765 35.2499C28.2309 34.581 28.9597 34.0018 29.6814 33.5034L28.2954 29.6602Z" fill="#F77B1D"/>
<path d="M31.3678 38.1568L31.1662 37.614L31.0947 37.6796C30.8265 37.9258 30.5907 38.1377 30.4203 38.3193C29.7147 39.0508 29.8094 39.8328 29.9163 40.0416C29.9214 40.0522 29.9275 40.0624 29.9344 40.0719L30.1814 40.3837H32.1702L31.3678 38.1568ZM28.2954 29.6602H25.2713L21.3965 40.3837H24.1282L26.7692 32.5469L27.6765 35.2499C28.2309 34.581 28.9597 34.0018 29.6814 33.5034L28.2954 29.6602Z" fill="url(#paint9_linear_572_15899)"/>
<path d="M31.1696 37.6138L31.098 37.6794C30.8299 37.9255 30.594 38.1374 30.4237 38.3191C29.7181 39.0506 29.8128 39.8325 29.9197 40.0414C30.0338 39.6137 30.2584 39.2236 30.5708 38.9103C30.7795 38.6944 31.0577 38.4421 31.3692 38.1566L31.1696 37.6138Z" fill="#D1D3D4"/>
<path d="M33.0949 29.5913C33.0949 29.5913 33.2602 30.8919 32.48 32.0129C32.2323 32.3682 31.9155 32.6699 31.5486 32.8998C29.835 33.9865 27.0538 35.5403 27.0962 37.7227C27.0986 37.8581 27.1118 37.993 27.1355 38.1263C27.5599 40.5247 29.5406 40.3814 29.5406 40.3814C29.2906 40.0656 29.1233 38.9365 30.0638 37.9659C31.0043 36.9953 33.3379 35.2951 33.8227 33.0491C34.3076 30.8031 33.0949 29.5913 33.0949 29.5913ZM29.5427 40.3814C28.4338 39.887 28.0105 39.0001 28.1143 38.088C28.2072 37.434 28.5067 36.8269 28.9691 36.3556C30.0346 35.2194 31.8057 34.163 31.8924 34.1287C31.7986 34.1933 29.0578 36.0266 28.5719 37.7681C28.5508 37.8448 28.5326 37.9205 28.5195 37.9942C28.207 39.5702 29.4751 40.337 29.5427 40.3814Z" fill="#639900"/>
<path d="M33.7265 33.2181C33.2417 35.4641 30.9041 37.1632 29.9676 38.1348C29.0312 39.1065 29.1945 40.2345 29.4445 40.5504C29.4445 40.5504 27.4637 40.6936 27.0393 38.2953C27.0156 38.162 27.0024 38.027 27 37.8917C27.1296 38.0248 27.2876 38.1268 27.4622 38.19C27.6367 38.2533 27.8234 38.2762 28.008 38.2569C27.9072 39.165 28.3316 40.056 29.4364 40.5504C29.3739 40.506 28.1058 39.7432 28.4133 38.1631C28.593 38.0968 28.765 38.0112 28.9263 37.9078C30.4726 36.9402 32.9131 33.7579 32.3788 32.1818C33.159 31.0608 32.9937 29.7603 32.9937 29.7603C32.9937 29.7603 34.2124 30.972 33.7265 33.2181Z" fill="#D1D3D4"/>
</g>
<path d="M55.42 35.5L58.56 19.3H62.22L65.34 35.5H62.28L61.7 31.94H59.14L58.52 35.5H55.42ZM59.44 29.92H61.38L60.4 23.38L59.44 29.92ZM68.1817 35.5V19.3H72.1417C73.5151 19.3 74.5817 19.48 75.3417 19.84C76.1151 20.1867 76.6617 20.74 76.9817 21.5C77.3017 22.2467 77.4617 23.2067 77.4617 24.38V30.28C77.4617 31.48 77.3017 32.4667 76.9817 33.24C76.6617 34.0133 76.1217 34.5867 75.3617 34.96C74.6151 35.32 73.5684 35.5 72.2217 35.5H68.1817ZM71.4817 33.2H72.1817C72.7951 33.2 73.2284 33.1067 73.4817 32.92C73.7484 32.72 73.9151 32.4333 73.9817 32.06C74.0484 31.6733 74.0817 31.2 74.0817 30.64V23.96C74.0817 23.4 74.0351 22.9533 73.9417 22.62C73.8617 22.2733 73.6884 22.02 73.4217 21.86C73.1684 21.7 72.7484 21.62 72.1617 21.62H71.4817V33.2ZM85.3666 35.72C84.1799 35.72 83.2399 35.5067 82.5466 35.08C81.8532 34.6533 81.3532 34.0467 81.0466 33.26C80.7532 32.46 80.6066 31.5067 80.6066 30.4V24.36C80.6066 23.2533 80.7532 22.3067 81.0466 21.52C81.3532 20.7333 81.8532 20.1333 82.5466 19.72C83.2399 19.3067 84.1799 19.1 85.3666 19.1C86.5666 19.1 87.5132 19.3133 88.2066 19.74C88.9132 20.1533 89.4132 20.7533 89.7066 21.54C90.0132 22.3133 90.1666 23.2533 90.1666 24.36V30.4C90.1666 31.5067 90.0132 32.46 89.7066 33.26C89.4132 34.0467 88.9132 34.6533 88.2066 35.08C87.5132 35.5067 86.5666 35.72 85.3666 35.72ZM85.3666 33.34C85.7932 33.34 86.1066 33.2467 86.3066 33.06C86.5066 32.86 86.6399 32.6 86.7066 32.28C86.7732 31.9467 86.8066 31.5933 86.8066 31.22V23.56C86.8066 23.1867 86.7732 22.84 86.7066 22.52C86.6399 22.2 86.5066 21.9467 86.3066 21.76C86.1066 21.56 85.7932 21.46 85.3666 21.46C84.9666 21.46 84.6666 21.56 84.4666 21.76C84.2666 21.9467 84.1332 22.2 84.0666 22.52C83.9999 22.84 83.9666 23.1867 83.9666 23.56V31.22C83.9666 31.5933 83.9932 31.9467 84.0466 32.28C84.1132 32.6 84.2466 32.86 84.4466 33.06C84.6466 33.2467 84.9532 33.34 85.3666 33.34ZM97.77 35.72C96.77 35.72 95.9367 35.54 95.27 35.18C94.6033 34.8067 94.0967 34.2533 93.75 33.52C93.4167 32.7733 93.2233 31.8267 93.17 30.68L96.01 30.2C96.0367 30.8667 96.1033 31.4267 96.21 31.88C96.33 32.32 96.5033 32.6533 96.73 32.88C96.97 33.0933 97.2633 33.2 97.61 33.2C98.0367 33.2 98.3233 33.0667 98.47 32.8C98.63 32.5333 98.71 32.2267 98.71 31.88C98.71 31.2 98.5433 30.6333 98.21 30.18C97.89 29.7133 97.4633 29.2467 96.93 28.78L95.25 27.32C94.65 26.8133 94.1567 26.24 93.77 25.6C93.3967 24.96 93.21 24.1733 93.21 23.24C93.21 21.9067 93.5967 20.8867 94.37 20.18C95.1567 19.46 96.23 19.1 97.59 19.1C98.4033 19.1 99.07 19.2333 99.59 19.5C100.11 19.7667 100.51 20.1267 100.79 20.58C101.083 21.02 101.283 21.5067 101.39 22.04C101.51 22.56 101.583 23.08 101.61 23.6L98.79 24.02C98.7633 23.5267 98.7167 23.0933 98.65 22.72C98.5967 22.3467 98.4767 22.0533 98.29 21.84C98.1167 21.6267 97.85 21.52 97.49 21.52C97.1033 21.52 96.8167 21.6667 96.63 21.96C96.4433 22.24 96.35 22.5533 96.35 22.9C96.35 23.4733 96.4767 23.9467 96.73 24.32C96.9967 24.68 97.3567 25.06 97.81 25.46L99.45 26.9C100.13 27.4867 100.71 28.16 101.19 28.92C101.683 29.6667 101.93 30.5933 101.93 31.7C101.93 32.46 101.757 33.1467 101.41 33.76C101.063 34.3733 100.577 34.8533 99.95 35.2C99.3367 35.5467 98.61 35.72 97.77 35.72ZM104.908 35.5V19.3H108.188V35.5H104.908ZM116.068 35.72C115.068 35.72 114.235 35.54 113.568 35.18C112.902 34.8067 112.395 34.2533 112.048 33.52C111.715 32.7733 111.522 31.8267 111.468 30.68L114.308 30.2C114.335 30.8667 114.402 31.4267 114.508 31.88C114.628 32.32 114.802 32.6533 115.028 32.88C115.268 33.0933 115.562 33.2 115.908 33.2C116.335 33.2 116.622 33.0667 116.768 32.8C116.928 32.5333 117.008 32.2267 117.008 31.88C117.008 31.2 116.842 30.6333 116.508 30.18C116.188 29.7133 115.762 29.2467 115.228 28.78L113.548 27.32C112.948 26.8133 112.455 26.24 112.068 25.6C111.695 24.96 111.508 24.1733 111.508 23.24C111.508 21.9067 111.895 20.8867 112.668 20.18C113.455 19.46 114.528 19.1 115.888 19.1C116.702 19.1 117.368 19.2333 117.888 19.5C118.408 19.7667 118.808 20.1267 119.088 20.58C119.382 21.02 119.582 21.5067 119.688 22.04C119.808 22.56 119.882 23.08 119.908 23.6L117.088 24.02C117.062 23.5267 117.015 23.0933 116.948 22.72C116.895 22.3467 116.775 22.0533 116.588 21.84C116.415 21.6267 116.148 21.52 115.788 21.52C115.402 21.52 115.115 21.6667 114.928 21.96C114.742 22.24 114.648 22.5533 114.648 22.9C114.648 23.4733 114.775 23.9467 115.028 24.32C115.295 24.68 115.655 25.06 116.108 25.46L117.748 26.9C118.428 27.4867 119.008 28.16 119.488 28.92C119.982 29.6667 120.228 30.5933 120.228 31.7C120.228 32.46 120.055 33.1467 119.708 33.76C119.362 34.3733 118.875 34.8533 118.248 35.2C117.635 35.5467 116.908 35.72 116.068 35.72ZM124.686 35.5V21.76H122.186V19.3H130.466V21.76H128.006V35.5H124.686ZM133.136 35.5V19.3H140.196V21.58H136.436V25.88H139.336V28.18H136.436V33.26H140.236V35.5H133.136ZM143.105 35.5V19.3H147.305C148.398 19.3 149.332 19.4267 150.105 19.68C150.892 19.92 151.492 20.3533 151.905 20.98C152.332 21.6067 152.545 22.4733 152.545 23.58C152.545 24.2467 152.485 24.84 152.365 25.36C152.258 25.8667 152.058 26.3133 151.765 26.7C151.485 27.0733 151.085 27.3733 150.565 27.6L152.805 35.5H149.425L147.565 28.16H146.405V35.5H143.105ZM146.405 26.2H147.365C147.898 26.2 148.318 26.1133 148.625 25.94C148.932 25.7667 149.145 25.5067 149.265 25.16C149.398 24.8 149.465 24.36 149.465 23.84C149.465 23.0933 149.325 22.5267 149.045 22.14C148.778 21.74 148.272 21.54 147.525 21.54H146.405V26.2ZM156.005 35.5V19.3H159.285V35.5H156.005ZM162.966 35.5V19.3H165.266L168.866 27.74V19.3H171.586V35.5H169.386L165.786 26.54V35.5H162.966ZM179.38 35.74C178.287 35.74 177.42 35.5133 176.78 35.06C176.14 34.5933 175.68 33.94 175.4 33.1C175.134 32.2467 175 31.26 175 30.14V24.72C175 23.56 175.14 22.56 175.42 21.72C175.7 20.88 176.187 20.2333 176.88 19.78C177.587 19.3267 178.54 19.1 179.74 19.1C180.9 19.1 181.814 19.2933 182.48 19.68C183.16 20.0667 183.647 20.6133 183.94 21.32C184.234 22.0267 184.38 22.8667 184.38 23.84V24.78H181.16V23.64C181.16 23.2133 181.134 22.84 181.08 22.52C181.027 22.1867 180.9 21.9267 180.7 21.74C180.514 21.5533 180.207 21.46 179.78 21.46C179.34 21.46 179.02 21.5733 178.82 21.8C178.62 22.0267 178.494 22.32 178.44 22.68C178.387 23.0267 178.36 23.4 178.36 23.8V30.98C178.36 31.4333 178.4 31.84 178.48 32.2C178.56 32.56 178.707 32.84 178.92 33.04C179.147 33.24 179.467 33.34 179.88 33.34C180.294 33.34 180.614 33.2333 180.84 33.02C181.067 32.8067 181.22 32.52 181.3 32.16C181.394 31.7867 181.44 31.3667 181.44 30.9V29.18H179.86V27.18H184.42V35.5H182.26L182.06 34.04C181.847 34.5333 181.527 34.94 181.1 35.26C180.674 35.58 180.1 35.74 179.38 35.74Z" fill="white"/>
<defs>
<linearGradient id="paint0_linear_572_15899" x1="22.9297" y1="9.58324" x2="38.0036" y2="19.4696" gradientUnits="userSpaceOnUse">
<stop stop-color="#D7F40E"/>
<stop offset="1" stop-color="#6DC50F"/>
</linearGradient>
<linearGradient id="paint1_linear_572_15899" x1="11.709" y1="15.3475" x2="37.1225" y2="53.8449" gradientUnits="userSpaceOnUse">
<stop stop-color="#D7F40E"/>
<stop offset="1" stop-color="#6DC50F"/>
</linearGradient>
<linearGradient id="paint2_linear_572_15899" x1="23.7414" y1="17.4913" x2="45.5965" y2="29.4071" gradientUnits="userSpaceOnUse">
<stop stop-color="#43C9D4"/>
<stop offset="1" stop-color="#0049B2" stop-opacity="0.88"/>
</linearGradient>
<linearGradient id="paint3_linear_572_15899" x1="4.0184" y1="37.1569" x2="42.709" y2="33.9536" gradientUnits="userSpaceOnUse">
<stop offset="0.01" stop-color="#3866BD"/>
<stop offset="0.02" stop-color="#406EC1"/>
<stop offset="0.06" stop-color="#5B89CF"/>
<stop offset="0.11" stop-color="#719FDA"/>
<stop offset="0.17" stop-color="#80AEE1"/>
<stop offset="0.23" stop-color="#88B6E6"/>
<stop offset="0.33" stop-color="#8BB9E7"/>
<stop offset="1" stop-color="#CBE6F5"/>
</linearGradient>
<linearGradient id="paint4_linear_572_15899" x1="-0.386433" y1="16.2979" x2="30.1217" y2="49.8375" gradientUnits="userSpaceOnUse">
<stop stop-color="#43C9D4"/>
<stop offset="1" stop-color="#0049B2" stop-opacity="0.88"/>
</linearGradient>
<linearGradient id="paint5_linear_572_15899" x1="4.83378" y1="49.6117" x2="27.6446" y2="47.6781" gradientUnits="userSpaceOnUse">
<stop offset="0.01" stop-color="#3866BD"/>
<stop offset="0.02" stop-color="#406EC1"/>
<stop offset="0.06" stop-color="#5B89CF"/>
<stop offset="0.11" stop-color="#719FDA"/>
<stop offset="0.17" stop-color="#80AEE1"/>
<stop offset="0.23" stop-color="#88B6E6"/>
<stop offset="0.33" stop-color="#8BB9E7"/>
<stop offset="1" stop-color="#CBE6F5"/>
</linearGradient>
<linearGradient id="paint6_linear_572_15899" x1="2.20199" y1="45.3244" x2="4.62134" y2="54.7806" gradientUnits="userSpaceOnUse">
<stop stop-color="#43C9D4"/>
<stop offset="1" stop-color="#0049B2" stop-opacity="0.88"/>
</linearGradient>
<linearGradient id="paint7_linear_572_15899" x1="6.00381" y1="48.4198" x2="31.0117" y2="46.2999" gradientUnits="userSpaceOnUse">
<stop stop-color="#345C97"/>
<stop offset="0.49" stop-color="#8BB9E7"/>
<stop offset="1" stop-color="#345C97"/>
</linearGradient>
<linearGradient id="paint8_linear_572_15899" x1="2.42312" y1="43.7069" x2="5.00178" y2="54.1748" gradientUnits="userSpaceOnUse">
<stop stop-color="#43C9D4"/>
<stop offset="1" stop-color="#0049B2" stop-opacity="0.88"/>
</linearGradient>
<linearGradient id="paint9_linear_572_15899" x1="21.6352" y1="28.4477" x2="30.1245" y2="41.3801" gradientUnits="userSpaceOnUse">
<stop stop-color="#D7F40E"/>
<stop offset="0.0001" stop-color="#D7F40E"/>
<stop offset="1" stop-color="#6DC50F"/>
</linearGradient>
<clipPath id="clip0_572_15899">
<rect x="13.418" y="21.3906" width="27.2126" height="27.2386" rx="13.6063" fill="white"/>
</clipPath>
</defs>
</svg>
